<svg width="59" height="59" viewBox="0 0 59 59" fill="none" xmlns="http://www.w3.org/2000/svg">
<circle cx="29.5" cy="29.5" r="29.5" fill="#265FE5"/>
<path d="M38.8033 34.2981L39.597 29.7083C39.7953 28.562 38.9137 27.5135 37.7516 27.5135H31.9229C31.3452 27.5135 30.9053 26.9949 30.9988 26.4242L31.7443 21.8741C31.8654 21.1349 31.8308 20.3785 31.6428 19.6535C31.487 19.0528 31.0236 18.5706 30.4141 18.3748L30.251 18.3224C29.8827 18.2041 29.4807 18.2316 29.1335 18.3989C28.7512 18.5831 28.4716 18.9191 28.368 19.3186L27.8328 21.3817C27.6625 22.0381 27.4145 22.6718 27.0947 23.2704C26.6274 24.1452 25.905 24.8453 25.154 25.4924L23.5354 26.8872C23.079 27.2804 22.8394 27.8694 22.8913 28.47L23.805 39.0367C23.8888 40.0059 24.6991 40.75 25.6709 40.75H30.9006C34.817 40.75 38.1595 38.0212 38.8033 34.2981Z" fill="white"/>
<path fill-rule="evenodd" clip-rule="evenodd" d="M19.3386 26.6707C19.79 26.6512 20.1767 26.9908 20.2156 27.441L21.3087 40.0821C21.3789 40.8941 20.7393 41.594 19.9225 41.594C19.1533 41.594 18.5312 40.9699 18.5312 40.202V27.5137C18.5312 27.0618 18.8872 26.6902 19.3386 26.6707Z" fill="white"/>
</svg>
