<svg width="55" height="54" viewBox="0 0 55 54" fill="none" xmlns="http://www.w3.org/2000/svg">
<mask id="path-1-inside-1_534_239" fill="white">
<path d="M27.5 1.20206e-06C20.2065 8.83256e-07 13.2118 2.84463 8.05456 7.90812C2.89731 12.9716 2.04386e-06 19.8392 1.18021e-06 27C3.16557e-07 34.1608 2.89731 41.0284 8.05456 46.0919C13.2118 51.1554 20.2065 54 27.5 54L27.5 52.4461C20.6263 52.4461 14.0341 49.7652 9.17369 44.9931C4.31325 40.221 1.58268 33.7487 1.58268 27C1.58269 20.2513 4.31325 13.779 9.17369 9.0069C14.0341 4.23483 20.6263 1.55391 27.5 1.55391L27.5 1.20206e-06Z"/>
</mask>
<path d="M27.5 1.20206e-06C20.2065 8.83256e-07 13.2118 2.84463 8.05456 7.90812C2.89731 12.9716 2.04386e-06 19.8392 1.18021e-06 27C3.16557e-07 34.1608 2.89731 41.0284 8.05456 46.0919C13.2118 51.1554 20.2065 54 27.5 54L27.5 52.4461C20.6263 52.4461 14.0341 49.7652 9.17369 44.9931C4.31325 40.221 1.58268 33.7487 1.58268 27C1.58269 20.2513 4.31325 13.779 9.17369 9.0069C14.0341 4.23483 20.6263 1.55391 27.5 1.55391L27.5 1.20206e-06Z" stroke="white" stroke-width="9.51128" mask="url(#path-1-inside-1_534_239)"/>
<path d="M18.1598 26.1593C17.6955 26.6236 17.6955 27.3764 18.1598 27.8407L25.726 35.4069C26.1903 35.8712 26.9431 35.8712 27.4074 35.4069C27.8717 34.9426 27.8717 34.1898 27.4074 33.7255L20.6819 27L27.4074 20.2745C27.8717 19.8102 27.8717 19.0574 27.4074 18.5931C26.9431 18.1288 26.1903 18.1288 25.726 18.5931L18.1598 26.1593ZM37.0005 25.8111L19.0005 25.8111V28.1889L37.0005 28.1889V25.8111Z" fill="white"/>
</svg>
