<svg width="55" height="54" viewBox="0 0 55 54" fill="none" xmlns="http://www.w3.org/2000/svg">
<mask id="path-1-inside-1_533_233" fill="white">
<path d="M27.5 1.20206e-06C34.7935 8.83256e-07 41.7882 2.84463 46.9454 7.90812C52.1027 12.9716 55 19.8392 55 27C55 34.1608 52.1027 41.0284 46.9454 46.0919C41.7882 51.1554 34.7935 54 27.5 54L27.5 52.4461C34.3737 52.4461 40.9659 49.7652 45.8263 44.9931C50.6868 40.221 53.4173 33.7487 53.4173 27C53.4173 20.2513 50.6867 13.779 45.8263 9.0069C40.9659 4.23483 34.3737 1.55391 27.5 1.55391L27.5 1.20206e-06Z"/>
</mask>
<path d="M27.5 1.20206e-06C34.7935 8.83256e-07 41.7882 2.84463 46.9454 7.90812C52.1027 12.9716 55 19.8392 55 27C55 34.1608 52.1027 41.0284 46.9454 46.0919C41.7882 51.1554 34.7935 54 27.5 54L27.5 52.4461C34.3737 52.4461 40.9659 49.7652 45.8263 44.9931C50.6868 40.221 53.4173 33.7487 53.4173 27C53.4173 20.2513 50.6867 13.779 45.8263 9.0069C40.9659 4.23483 34.3737 1.55391 27.5 1.55391L27.5 1.20206e-06Z" stroke="white" stroke-width="9.51128" mask="url(#path-1-inside-1_533_233)"/>
<path d="M36.8402 26.1593C37.3045 26.6236 37.3045 27.3764 36.8402 27.8407L29.274 35.4069C28.8097 35.8712 28.0569 35.8712 27.5926 35.4069C27.1283 34.9426 27.1283 34.1898 27.5926 33.7255L34.3181 27L27.5926 20.2745C27.1283 19.8102 27.1283 19.0574 27.5926 18.5931C28.0569 18.1288 28.8097 18.1288 29.274 18.5931L36.8402 26.1593ZM17.9995 25.8111L35.9995 25.8111V28.1889L17.9995 28.1889V25.8111Z" fill="white"/>
</svg>
