<svg width="54" height="54" viewBox="0 0 54 54" fill="none" xmlns="http://www.w3.org/2000/svg">
<path fill-rule="evenodd" clip-rule="evenodd" d="M25.125 2C25.125 0.964466 25.9645 0.125 27 0.125C41.8427 0.125 53.875 12.1573 53.875 27C53.875 41.8427 41.8427 53.875 27 53.875C12.1573 53.875 0.125 41.8427 0.125 27C0.125 25.9645 0.964466 25.125 2 25.125C3.03553 25.125 3.875 25.9645 3.875 27C3.875 39.7716 14.2284 50.125 27 50.125C39.7716 50.125 50.125 39.7716 50.125 27C50.125 14.2284 39.7716 3.875 27 3.875C25.9645 3.875 25.125 3.03553 25.125 2ZM27 17.625C28.0355 17.625 28.875 18.4645 28.875 19.5V27.625H37C38.0355 27.625 38.875 28.4645 38.875 29.5C38.875 30.5355 38.0355 31.375 37 31.375H27C25.9645 31.375 25.125 30.5355 25.125 29.5V19.5C25.125 18.4645 25.9645 17.625 27 17.625Z" fill="white"/>
<path fill-rule="evenodd" clip-rule="evenodd" d="M19.7489 2.99385C20.1219 3.9599 19.641 5.04536 18.675 5.41828C18.3214 5.55477 17.972 5.69971 17.627 5.85286C16.6805 6.27303 15.5727 5.84639 15.1525 4.89993C14.7323 3.95347 15.159 2.8456 16.1054 2.42543C16.5067 2.24729 16.9131 2.07868 17.3245 1.91988C18.2906 1.54696 19.376 2.02779 19.7489 2.99385ZM11.1193 7.60066C11.8334 8.35054 11.8045 9.53737 11.0546 10.2515C10.7804 10.5126 10.5126 10.7804 10.2515 11.0546C9.53737 11.8045 8.35054 11.8334 7.60066 11.1193C6.85079 10.4051 6.82183 9.21827 7.53598 8.4684C7.83916 8.15006 8.15006 7.83916 8.4684 7.53599C9.21827 6.82183 10.4051 6.85079 11.1193 7.60066ZM4.89993 15.1525C5.84639 15.5727 6.27303 16.6805 5.85286 17.627C5.69971 17.972 5.55477 18.3214 5.41827 18.675C5.04536 19.641 3.9599 20.1219 2.99385 19.7489C2.02779 19.376 1.54696 18.2906 1.91988 17.3245C2.07868 16.9131 2.24729 16.5067 2.42543 16.1054C2.8456 15.159 3.95347 14.7323 4.89993 15.1525Z" fill="white"/>
</svg>
