<svg width="54" height="54" viewBox="0 0 54 54" fill="none" xmlns="http://www.w3.org/2000/svg">
<path fill-rule="evenodd" clip-rule="evenodd" d="M21.3921 1.95715C21.4158 2.99241 20.5957 3.85085 19.5605 3.87452C12.5062 4.03581 9.18371 4.74738 6.99067 6.94042C5.56469 8.3664 4.74654 10.2956 4.31639 13.495C3.87898 16.7484 3.875 21.0234 3.875 26.9749C3.875 32.9264 3.87898 37.2014 4.31639 40.4547C4.74654 43.6542 5.56469 45.5834 6.99067 47.0093C8.41665 48.4353 10.3459 49.2535 13.5453 49.6836C16.7987 50.121 21.0736 50.125 27.0251 50.125C32.9766 50.125 37.2516 50.121 40.505 49.6836C43.7044 49.2535 45.6336 48.4353 47.0596 47.0093C49.2526 44.8163 49.9642 41.4938 50.1255 34.4396C50.1492 33.4043 51.0076 32.5842 52.0429 32.6079C53.0781 32.6316 53.8982 33.49 53.8745 34.5253C53.7164 41.4413 53.0935 46.2788 49.7112 49.661C47.4724 51.8999 44.6199 52.9141 41.0047 53.4002C37.4725 53.8751 32.9455 53.875 27.1686 53.875H26.8817C21.1048 53.875 16.5777 53.8751 13.0456 53.4002C9.43035 52.9141 6.57789 51.8999 4.33902 49.661C2.10016 47.4221 1.08589 44.5697 0.599827 40.9544C0.124943 37.4223 0.124968 32.8952 0.125001 27.1183V26.8314C0.124968 21.0545 0.124943 16.5275 0.599827 12.9954C1.08589 9.3801 2.10016 6.52764 4.33902 4.28877C7.72125 0.906543 12.5587 0.28363 19.4747 0.1255C20.51 0.101829 21.3684 0.921887 21.3921 1.95715ZM40.1514 3.87501C34.6359 3.87501 30.1778 8.3259 30.1778 13.8002C30.1778 15.0293 30.4597 16.1074 30.7491 16.8857C30.8926 17.2716 31.0343 17.5737 31.1352 17.7714C31.1855 17.87 31.2252 17.9416 31.2493 17.9837L31.2728 18.0241C31.736 18.7621 31.6265 19.7225 31.0091 20.3373L16.6751 34.6128C16.6382 34.6496 16.5671 34.7339 16.5012 34.852C16.4367 34.9678 16.3979 35.0784 16.3827 35.1715C16.3689 35.2562 16.3738 35.3256 16.3961 35.395C16.4178 35.4629 16.479 35.6023 16.6751 35.7976L18.2605 37.3766C18.308 37.4118 18.3817 37.4599 18.475 37.5056C18.597 37.5654 18.7152 37.6028 18.8156 37.6176C18.9108 37.6317 18.9745 37.6237 19.0197 37.6102C19.0578 37.5987 19.1414 37.5665 19.2643 37.4442L21.1931 35.5232C21.9247 34.7946 23.1077 34.7946 23.8393 35.5232C24.1266 35.8094 24.3663 35.9284 24.5369 35.9806C24.7094 36.0333 24.8804 36.0388 25.0568 36.005C25.4475 35.9302 25.8027 35.6718 25.9661 35.4651C26.1925 35.1383 26.1851 34.8544 26.0769 34.5311C26.0169 34.3517 25.9303 34.19 25.8547 34.0709C25.8184 34.0138 25.7887 33.973 25.7728 33.9519C25.7685 33.9462 25.7635 33.9397 25.7635 33.9397C25.1391 33.1951 25.187 32.0945 25.8774 31.4069L26.4285 30.858C27.1601 30.1294 28.3431 30.1294 29.0747 30.858C30.0347 31.814 30.6711 31.8021 30.9774 31.744C31.4104 31.6618 31.8137 31.3505 32.0276 31.0753C32.309 30.6723 32.3104 30.3123 32.2312 29.9812C32.1878 29.7997 32.1203 29.6413 32.0631 29.5297C32.0355 29.4758 32.0132 29.4384 32.0022 29.4208L31.9998 29.4169L31.9286 29.3176L31.8625 29.1859C31.8387 29.1385 31.8006 29.0813 31.6794 28.9476C31.6754 28.9431 31.6679 28.9353 31.6576 28.9244C31.5649 28.8269 31.2396 28.4846 31.0396 28.1261C30.6977 27.513 30.6031 26.7669 30.8997 26.005C31.1283 25.4179 31.55 24.9343 31.9395 24.5463L33.5929 22.8997C34.2779 22.2175 35.3694 22.168 36.1134 22.7854C36.4125 23.0336 37.051 23.3013 37.962 23.4899C38.8177 23.667 39.6674 23.7254 40.1514 23.7254C45.6669 23.7254 50.125 19.2745 50.125 13.8002C50.125 8.3259 45.6669 3.87501 40.1514 3.87501ZM29.8714 35.4408C29.7935 36.1539 29.5397 36.9172 28.9997 37.6701L28.987 37.6878L28.9739 37.7053C28.3047 38.5939 27.1525 39.4218 25.7622 39.6881C24.7796 39.8762 23.7298 39.7719 22.7283 39.2867L21.9105 40.1012C20.7796 41.2275 19.4292 41.4991 18.2673 41.3273C17.1987 41.1694 16.3175 40.6508 15.7879 40.1988C15.7514 40.1676 15.7162 40.1351 15.6822 40.1012L14.0289 38.4547C12.8241 37.2548 12.4728 35.8452 12.6818 34.5666C12.8716 33.4055 13.495 32.4874 14.0289 31.9557L27.4069 18.6323C27.35 18.4948 27.292 18.3481 27.2343 18.1928C26.8348 17.1187 26.4278 15.5898 26.4278 13.8002C26.4278 6.24037 32.5793 0.12501 40.1514 0.12501C47.7235 0.12501 53.875 6.24037 53.875 13.8002C53.875 21.36 47.7235 27.4754 40.1514 27.4754C39.4413 27.4754 38.3347 27.3966 37.2018 27.162C36.6001 27.0375 35.9034 26.852 35.2272 26.5646L34.864 26.9263C34.9609 27.0615 35.0601 27.2154 35.1539 27.3884C35.1643 27.4047 35.1754 27.4223 35.1871 27.4411C35.2461 27.536 35.3206 27.6636 35.4007 27.8199C35.5588 28.1285 35.7496 28.5704 35.8784 29.1092C36.1425 30.2138 36.1452 31.7688 35.0618 33.2793L35.0491 33.2971L35.0359 33.3145C34.4196 34.133 33.2598 35.1279 31.6763 35.4282C31.0856 35.5403 30.4801 35.5476 29.8714 35.4408ZM40.1514 11.5589C38.897 11.5589 37.8932 12.5696 37.8932 13.8002C37.8932 15.0308 38.897 16.0415 40.1514 16.0415C41.4058 16.0415 42.4096 15.0308 42.4096 13.8002C42.4096 12.5696 41.4058 11.5589 40.1514 11.5589ZM34.1432 13.8002C34.1432 10.484 36.8404 7.80885 40.1514 7.80885C43.4624 7.80885 46.1596 10.484 46.1596 13.8002C46.1596 17.1164 43.4624 19.7915 40.1514 19.7915C36.8404 19.7915 34.1432 17.1164 34.1432 13.8002Z" fill="white"/>
</svg>
