<svg width="55" height="54" viewBox="0 0 55 54" fill="none" xmlns="http://www.w3.org/2000/svg">
<mask id="path-1-inside-1_181_276" fill="white">
<path d="M27.5 -2.61263e-06C34.7935 -2.93144e-06 41.7882 2.84463 46.9454 7.90811C52.1027 12.9716 55 19.8391 55 27C55 34.1608 52.1027 41.0284 46.9454 46.0919C41.7882 51.1554 34.7935 54 27.5 54L27.5 52.4461C34.3737 52.4461 40.9659 49.7652 45.8263 44.9931C50.6868 40.221 53.4173 33.7487 53.4173 27C53.4173 20.2513 50.6867 13.779 45.8263 9.00689C40.9659 4.23483 34.3737 1.55391 27.5 1.55391L27.5 -2.61263e-06Z"/>
</mask>
<path d="M27.5 -2.61263e-06C34.7935 -2.93144e-06 41.7882 2.84463 46.9454 7.90811C52.1027 12.9716 55 19.8391 55 27C55 34.1608 52.1027 41.0284 46.9454 46.0919C41.7882 51.1554 34.7935 54 27.5 54L27.5 52.4461C34.3737 52.4461 40.9659 49.7652 45.8263 44.9931C50.6868 40.221 53.4173 33.7487 53.4173 27C53.4173 20.2513 50.6867 13.779 45.8263 9.00689C40.9659 4.23483 34.3737 1.55391 27.5 1.55391L27.5 -2.61263e-06Z" stroke="#265FE5" stroke-width="12" mask="url(#path-1-inside-1_181_276)"/>
<path d="M37.0607 25.9393C37.6464 26.5251 37.6464 27.4749 37.0607 28.0607L27.5147 37.6066C26.9289 38.1924 25.9792 38.1924 25.3934 37.6066C24.8076 37.0208 24.8076 36.0711 25.3934 35.4853L33.8787 27L25.3934 18.5147C24.8076 17.9289 24.8076 16.9792 25.3934 16.3934C25.9792 15.8076 26.9289 15.8076 27.5147 16.3934L37.0607 25.9393ZM18 25.5L36 25.5V28.5L18 28.5V25.5Z" fill="#265FE5"/>
</svg>
