<svg width="129" height="130" viewBox="0 0 129 130" fill="none" xmlns="http://www.w3.org/2000/svg">
<path d="M129 65C129 100.899 100.122 130 64.5 130C28.8776 130 0 100.899 0 65C0 29.1015 28.8776 0 64.5 0C100.122 0 129 29.1015 129 65Z" fill="#3A475E"/>
<path d="M25.3588 85.3355L26.6914 84.4758L31.8553 92.3864L30.5227 93.2461L28.4682 90.0992L22.5271 93.9402L21.4721 92.3312L27.4212 88.4903L25.3588 85.3355ZM30.0705 102.758L35.512 96.0381L42.0481 101.267L41.0962 102.442L36.0672 98.412L34.7981 99.9894L38.7562 103.152L37.852 104.272L33.8938 101.101L32.5295 102.789L37.7409 106.961L36.789 108.137L30.0705 102.758ZM53.2482 114.935L51.051 114.225L49.2029 110.171L45.2685 112.34L43.1982 111.67L48.4969 108.768L46.1728 103.562L48.362 104.272L49.9247 108.034L53.5259 105.952L55.612 106.638L50.6941 109.43L53.2482 114.935ZM68.7397 107.261L70.6752 107.238L70.8021 115.858L68.8666 115.889L68.8111 112.293L62.9651 112.372L63.0206 115.968L61.0852 116L60.9583 107.372L62.8937 107.348L62.9413 110.795L68.7953 110.716L68.7397 107.261ZM79.7892 112.585C78.5835 112.191 77.7348 111.354 77.243 110.085C76.7433 108.815 76.7988 107.624 77.4175 106.528C78.0283 105.424 79.1546 104.556 80.7887 103.925C82.4147 103.294 83.8346 103.176 85.0403 103.57C86.246 103.972 87.1026 104.808 87.5944 106.078C88.0942 107.348 88.0307 108.531 87.412 109.635C86.7933 110.739 85.6749 111.607 84.0408 112.238C82.4068 112.869 80.987 112.987 79.7892 112.585ZM79.1626 107.096C78.766 107.821 78.7263 108.586 79.0436 109.391C79.3529 110.187 79.9082 110.724 80.6855 111C81.4708 111.268 82.3989 111.197 83.4697 110.779C84.5406 110.369 85.2703 109.793 85.6669 109.067C86.0715 108.342 86.1111 107.577 85.7938 106.772C85.4845 105.968 84.9292 105.431 84.144 105.163C83.3587 104.895 82.4227 104.966 81.3598 105.384C80.2889 105.794 79.5512 106.37 79.1626 107.096ZM90.7197 98.3253L96.6609 92.7571L102.618 99.0272L101.206 100.352L96.3436 95.2257L93.0835 98.2859C93.2738 98.5067 93.5435 98.8379 93.9005 99.2559C94.4161 99.8475 94.7889 100.281 95.0189 100.573C95.249 100.857 95.5345 101.228 95.8597 101.677C96.1929 102.135 96.3991 102.49 96.4864 102.758C96.5657 103.018 96.6371 103.326 96.6847 103.673C96.7323 104.012 96.6767 104.327 96.526 104.611C96.3674 104.903 96.1374 105.187 95.828 105.487C95.5504 105.739 95.2648 105.983 94.9793 106.212L93.9005 105.069C94.0988 104.935 94.2574 104.8 94.3844 104.682C94.5192 104.556 94.6223 104.422 94.6858 104.28C94.7572 104.138 94.773 103.98 94.7572 103.799C94.7334 103.625 94.6937 103.452 94.6461 103.286C94.5906 103.121 94.4875 102.923 94.3288 102.679C94.1702 102.434 94.0195 102.214 93.8688 102.016C93.7181 101.819 93.5118 101.559 93.2421 101.236C92.9724 100.92 92.7345 100.636 92.5124 100.392C92.2982 100.139 92.0126 99.8159 91.6557 99.4058C91.2988 99.0036 90.9894 98.6408 90.7197 98.3253ZM107.219 90.6907C106.045 91.1718 104.855 91.1009 103.641 90.4699C102.428 89.8311 101.682 88.9004 101.42 87.67C101.158 86.4397 101.428 85.0516 102.245 83.5057C103.054 81.9678 104.054 80.9504 105.22 80.4614C106.394 79.9724 107.583 80.0434 108.805 80.6822C110.019 81.3132 110.756 82.2438 111.018 83.4821C111.28 84.7203 111.002 86.1084 110.193 87.6464C109.376 89.1922 108.385 90.2018 107.219 90.6907ZM103.11 86.9602C103.292 87.7647 103.768 88.3641 104.537 88.7663C105.307 89.1686 106.076 89.208 106.846 88.9004C107.615 88.5928 108.266 87.9303 108.797 86.9208C109.329 85.9113 109.503 85.0043 109.329 84.1919C109.146 83.3874 108.67 82.7802 107.901 82.3779C107.131 81.9836 106.362 81.9362 105.592 82.2517C104.823 82.5593 104.173 83.2218 103.641 84.2313C103.102 85.2409 102.927 86.1558 103.11 86.9602ZM114.35 74.6724L105.759 73.4972L106.814 65.8785L108.385 66.0914L107.591 71.8094L114.611 72.7716L114.35 74.6724ZM104.966 54.2295L104.3 51.3429L112.747 49.4027L113.176 51.2324L105.965 52.8808L114.326 56.2012L115 59.0799L106.544 61.0201L106.124 59.1982L113.326 57.542L104.966 54.2295ZM98.1839 40.6087L96.4784 38.1875L103.594 33.2502L104.672 34.7803L98.6043 38.9919L107.607 38.9604L109.313 41.3896L102.198 46.3268L101.119 44.7888L107.187 40.5772L98.1839 40.6087Z" fill="white"/>
<path d="M15.174 53.2198L15.4674 51.3191L24.0421 52.6204L23.7486 54.5212L20.1712 53.977L19.2907 59.7265L22.8681 60.2707L22.5746 62.1715L14 60.8701L14.2935 58.9694L17.7202 59.4899L18.6086 53.7403L15.174 53.2198ZM26.5407 44.8202C25.3192 45.1515 24.1452 44.9306 23.0268 44.142C21.9004 43.3612 21.2896 42.3358 21.1865 41.0818C21.0834 39.8278 21.5355 38.487 22.5429 37.0595C23.5503 35.6398 24.6687 34.7565 25.8903 34.4253C27.1198 34.094 28.2937 34.3148 29.4122 35.1035C30.5306 35.8843 31.1414 36.9018 31.2445 38.1637C31.3476 39.4256 30.8875 40.7663 29.8881 42.1939C28.8807 43.6135 27.7623 44.489 26.5407 44.8202ZM22.9554 40.5928C23.0347 41.4131 23.4234 42.0756 24.1373 42.5725C24.8432 43.0693 25.5968 43.2113 26.4059 43.0062C27.207 42.7933 27.9368 42.2254 28.5951 41.2869C29.2535 40.3562 29.547 39.4808 29.4756 38.6527C29.4042 37.8245 29.0076 37.1699 28.3017 36.673C27.5878 36.1762 26.8342 36.0342 26.0251 36.2471C25.224 36.4522 24.4942 37.0279 23.8279 37.9586C23.1696 38.8972 22.8761 39.7726 22.9554 40.5928ZM40.9931 25.7418C42.5557 24.9215 43.6742 25.0162 44.3484 26.0415C44.7529 26.6487 44.8085 27.2955 44.5229 27.9816C44.2294 28.6599 43.5948 29.3224 42.6112 29.9691L37.6695 33.2028L32.9023 26.002L37.844 22.7605C38.6769 22.2163 39.4543 21.956 40.1761 21.9797C40.9058 22.0033 41.4532 22.2952 41.826 22.863C42.1353 23.3284 42.2067 23.8173 42.0401 24.3142C41.8736 24.8111 41.5245 25.2922 40.9931 25.7418ZM35.3375 26.1913L36.4797 27.9107L39.7239 25.7812C40.0809 25.5446 40.3189 25.2764 40.4378 24.9767C40.5568 24.677 40.533 24.3931 40.3506 24.1328C40.1681 23.8568 39.9223 23.7148 39.605 23.7069C39.2956 23.7069 38.9545 23.8252 38.5897 24.0618L35.3375 26.1913ZM41.6277 28.8255C42.1591 28.4785 42.5081 28.1473 42.6747 27.8397C42.8413 27.5321 42.8096 27.2166 42.6033 26.8932C42.2067 26.2938 41.5166 26.3175 40.541 26.9563L37.265 29.1016L38.4627 30.8998L41.6277 28.8255ZM56.1038 19.1641C57.1191 19.0063 57.9599 19.1088 58.6342 19.4716C59.3084 19.8266 59.713 20.4575 59.8557 21.3566C59.9906 22.2636 59.7923 22.9813 59.2529 23.5098C58.7214 24.0461 57.9441 24.3931 56.9367 24.5429L52.3281 25.2449L51.5428 25.3632L50.234 16.8374L52.1457 16.5535L52.6296 19.6925L56.1038 19.1641ZM60.4268 15.2916L62.3306 14.9998L63.6473 23.5255L61.7357 23.8173L60.4268 15.2916ZM56.6115 22.9971C57.0716 22.9261 57.4285 22.7763 57.6665 22.5397C57.9044 22.3031 57.9917 21.9955 57.9362 21.6169C57.8806 21.2304 57.6982 20.9623 57.3968 20.8124C57.1033 20.6547 56.7146 20.6152 56.2545 20.6862L52.8596 21.1989L53.2165 23.5176L56.6115 22.9971ZM70.5959 24.1801L72.4758 15.7569L80.6697 17.5709L80.3365 19.0379L74.0384 17.6419L73.5942 19.6136L78.5597 20.7099L78.2424 22.1059L73.2849 21.0096L72.8089 23.1312L79.345 24.5745L79.0198 26.0415L70.5959 24.1801Z" fill="white"/>
<path d="M50.7896 77.7263C50.7896 78.8309 51.685 79.7263 52.7896 79.7263L70.7896 79.7263C71.8941 79.7263 72.7896 78.8309 72.7896 77.7263C72.7896 76.6217 71.8941 75.7263 70.7896 75.7263L54.7896 75.7263L54.7896 59.7263C54.7896 58.6217 53.8941 57.7263 52.7896 57.7263C51.685 57.7263 50.7896 58.6217 50.7896 59.7263L50.7896 77.7263ZM76.3753 51.3121L51.3753 76.3121L54.2038 79.1405L79.2038 54.1405L76.3753 51.3121Z" fill="white"/>
</svg>
