<svg width="99" height="99" viewBox="0 0 99 99" fill="none" xmlns="http://www.w3.org/2000/svg">
<g filter="url(#filter0_d_428_257)">
<rect x="14" y="2" width="71" height="71" rx="14" fill="white"/>
</g>
<path fill-rule="evenodd" clip-rule="evenodd" d="M30.5915 23.0896C31.2591 18.5967 34.847 15 39.3988 15C42.1237 15 44.5322 16.3127 46.1456 18.3205C46.6707 18.9739 46.5654 19.9283 45.9105 20.4522C45.2555 20.9761 44.2989 20.8711 43.7738 20.2176C42.6751 18.8505 41.1063 18.033 39.3988 18.033C36.7119 18.033 34.2916 20.1172 33.6724 23.1C33.9724 23.138 34.264 23.2655 34.5043 23.4843C35.1243 24.0489 35.1682 25.0081 34.6023 25.6267L33.1225 27.2443C32.8345 27.5591 32.427 27.7384 31.9998 27.7384C31.5726 27.7384 31.1651 27.5591 30.8771 27.2443L29.3973 25.6267C28.8314 25.0081 28.8753 24.0489 29.4953 23.4843C29.8059 23.2015 30.2022 23.0713 30.5915 23.0896ZM47.2802 21.4703C47.7074 21.4703 48.1149 21.6497 48.4029 21.9645L49.8827 23.5821C50.4486 24.2007 50.4047 25.1599 49.7847 25.7245C49.4741 26.0073 49.0778 26.1375 48.6885 26.1192C48.0209 30.612 44.433 34.2088 39.8812 34.2088C37.3468 34.2088 35.083 33.0721 33.4814 31.2959C32.92 30.6732 32.9708 29.7144 33.5949 29.1542C34.219 28.5941 35.18 28.6448 35.7415 29.2674C36.8235 30.4674 38.2905 31.1758 39.8812 31.1758C42.5682 31.1758 44.9884 29.0915 45.6076 26.1087C45.3076 26.0707 45.016 25.9433 44.7757 25.7245C44.1557 25.1599 44.1118 24.2007 44.6777 23.5821L46.1575 21.9645C46.4455 21.6497 46.853 21.4703 47.2802 21.4703Z" fill="#265FE5"/>
<path fill-rule="evenodd" clip-rule="evenodd" d="M67 36.7363V44.8242C67 52.4496 67 56.2622 64.6256 58.6311C62.2512 61 58.4297 61 50.7867 61C43.1436 61 39.3221 61 36.9477 58.6311C34.5733 56.2622 34.5733 52.4496 34.5733 44.8242V41.3598C34.5733 40.8228 34.5733 40.5543 34.6242 40.3322C34.7974 39.575 35.3901 38.9837 36.149 38.8109C36.3717 38.7602 36.6411 38.7602 37.18 38.7602C40.4072 38.7602 42.0208 38.7602 43.3542 38.4571C47.9121 37.4213 51.4713 33.8703 52.5096 29.3229C52.8133 27.9927 52.8133 26.3846 52.8133 23.1686C52.8133 22.6351 52.8133 22.3684 52.8653 22.1439C53.0409 21.385 53.6602 20.7795 54.4243 20.6197C54.6502 20.5725 54.9092 20.5777 55.427 20.5882C60.0895 20.6825 62.79 21.098 64.6256 22.9294C67 25.2983 67 29.111 67 36.7363ZM44.7067 53.4175C43.8672 53.4175 43.1867 54.0965 43.1867 54.934C43.1867 55.7715 43.8672 56.4505 44.7067 56.4505H56.8667C57.7061 56.4505 58.3867 55.7715 58.3867 54.934C58.3867 54.0965 57.7061 53.4175 56.8667 53.4175H44.7067Z" fill="#265FE5"/>
<defs>
<filter id="filter0_d_428_257" x="0" y="0" width="99" height="99" filterUnits="userSpaceOnUse" color-interpolation-filters="sRGB">
<feFlood flood-opacity="0" result="BackgroundImageFix"/>
<feColorMatrix in="SourceAlpha" type="matrix" values="0 0 0 0 0 0 0 0 0 0 0 0 0 0 0 0 0 0 127 0" result="hardAlpha"/>
<feOffset dy="12"/>
<feGaussianBlur stdDeviation="7"/>
<feComposite in2="hardAlpha" operator="out"/>
<feColorMatrix type="matrix" values="0 0 0 0 0.14902 0 0 0 0 0.372549 0 0 0 0 0.898039 0 0 0 0.1 0"/>
<feBlend mode="normal" in2="BackgroundImageFix" result="effect1_dropShadow_428_257"/>
<feBlend mode="normal" in="SourceGraphic" in2="effect1_dropShadow_428_257" result="shape"/>
</filter>
</defs>
</svg>
