<svg width="99" height="99" viewBox="0 0 99 99" fill="none" xmlns="http://www.w3.org/2000/svg">
<g filter="url(#filter0_d_428_221)">
<rect x="14" y="2" width="71" height="71" rx="14" fill="white"/>
</g>
<path fill-rule="evenodd" clip-rule="evenodd" d="M49.6896 60.9992C62.6679 61.1039 73.1039 50.6679 72.9992 37.6896C72.8945 24.7114 62.2886 14.1055 49.3104 14.0008C36.3321 13.8961 25.8961 24.3321 26.0008 37.3104C26.1055 50.2886 36.7114 60.8945 49.6896 60.9992ZM53.5359 27.0921C54.417 27.9313 54.451 29.3258 53.6118 30.2069L48.7642 35.2969H55.3736C56.2549 35.2969 57.0514 35.8221 57.3986 36.6322C57.7458 37.4422 57.5768 38.3812 56.969 39.0194L48.5761 47.8319C47.737 48.713 46.3425 48.747 45.4614 47.9079C44.5803 47.0687 44.5463 45.6742 45.3854 44.7931L50.233 39.7031H43.6236C42.7423 39.7031 41.9458 39.1779 41.5986 38.3679C41.2515 37.5578 41.4204 36.6188 42.0283 35.9806L50.4211 27.1681C51.2602 26.287 52.6548 26.253 53.5359 27.0921Z" fill="#265FE5"/>
<defs>
<filter id="filter0_d_428_221" x="0" y="0" width="99" height="99" filterUnits="userSpaceOnUse" color-interpolation-filters="sRGB">
<feFlood flood-opacity="0" result="BackgroundImageFix"/>
<feColorMatrix in="SourceAlpha" type="matrix" values="0 0 0 0 0 0 0 0 0 0 0 0 0 0 0 0 0 0 127 0" result="hardAlpha"/>
<feOffset dy="12"/>
<feGaussianBlur stdDeviation="7"/>
<feComposite in2="hardAlpha" operator="out"/>
<feColorMatrix type="matrix" values="0 0 0 0 0.14902 0 0 0 0 0.372549 0 0 0 0 0.898039 0 0 0 0.1 0"/>
<feBlend mode="normal" in2="BackgroundImageFix" result="effect1_dropShadow_428_221"/>
<feBlend mode="normal" in="SourceGraphic" in2="effect1_dropShadow_428_221" result="shape"/>
</filter>
</defs>
</svg>
