<svg width="99" height="99" viewBox="0 0 99 99" fill="none" xmlns="http://www.w3.org/2000/svg">
<g filter="url(#filter0_d_428_224)">
<rect x="14" y="2" width="71" height="71" rx="14" fill="white"/>
</g>
<path fill-rule="evenodd" clip-rule="evenodd" d="M67.7087 35.8837L67.2962 40.3889C66.6164 47.8122 66.2765 51.5239 64.1478 53.7619C62.0191 56 58.8287 56 52.4479 56H47.5521C41.1713 56 37.9809 56 35.8522 53.7619C33.7235 51.5239 33.3836 47.8122 32.7038 40.3889L32.2913 35.8837C31.9672 32.3453 31.8052 30.5762 32.3942 29.8448C32.7128 29.4492 33.146 29.2068 33.6092 29.165C34.4654 29.0877 35.5407 30.3459 37.6914 32.8622C38.8036 34.1635 39.3597 34.8142 39.9801 34.9149C40.3238 34.9708 40.6741 34.9134 40.9915 34.7492C41.5643 34.4529 41.9463 33.6485 42.7101 32.0398L46.7365 23.56C48.1799 20.52 48.9016 19 50 19C51.0984 19 51.8201 20.52 53.2635 23.56L57.2899 32.0397C58.0537 33.6485 58.4357 34.4529 59.0085 34.7492C59.3259 34.9134 59.6762 34.9708 60.0199 34.9149C60.6403 34.8142 61.1964 34.1635 62.3086 32.8622C64.4593 30.3459 65.5346 29.0877 66.3908 29.165C66.854 29.2068 67.2872 29.4492 67.6058 29.8448C68.1948 30.5762 68.0328 32.3453 67.7087 35.8837ZM51.7142 38.7932L51.5373 38.4669C50.8533 37.2058 50.5113 36.5753 50 36.5753C49.4887 36.5753 49.1467 37.2058 48.4627 38.4669L48.2858 38.7932C48.0914 39.1516 47.9942 39.3307 47.8427 39.449C47.6911 39.5672 47.5024 39.6111 47.125 39.6989L46.7814 39.7788C45.4531 40.0876 44.789 40.2421 44.631 40.7643C44.473 41.2865 44.9258 41.8306 45.8313 42.9189L46.0655 43.2004C46.3228 43.5097 46.4515 43.6643 46.5094 43.8556C46.5672 44.0469 46.5478 44.2532 46.5089 44.6658L46.4735 45.0415C46.3366 46.4935 46.2681 47.2195 46.6818 47.5422C47.0954 47.865 47.7172 47.5707 48.9609 46.9822L49.2826 46.8299C49.636 46.6627 49.8127 46.5791 50 46.5791C50.1873 46.5791 50.364 46.6627 50.7174 46.8299L51.0391 46.9822C52.2828 47.5707 52.9046 47.865 53.3182 47.5422C53.7319 47.2195 53.6634 46.4935 53.5265 45.0415L53.4911 44.6658C53.4522 44.2532 53.4328 44.0469 53.4906 43.8556C53.5485 43.6643 53.6772 43.5097 53.9345 43.2004L54.1688 42.9189C55.0742 41.8306 55.527 41.2865 55.369 40.7643C55.211 40.2421 54.5469 40.0876 53.2187 39.7788L52.875 39.6989C52.4976 39.6111 52.3089 39.5672 52.1573 39.449C52.0058 39.3307 51.9086 39.1516 51.7142 38.7932Z" fill="#265FE5"/>
<defs>
<filter id="filter0_d_428_224" x="0" y="0" width="99" height="99" filterUnits="userSpaceOnUse" color-interpolation-filters="sRGB">
<feFlood flood-opacity="0" result="BackgroundImageFix"/>
<feColorMatrix in="SourceAlpha" type="matrix" values="0 0 0 0 0 0 0 0 0 0 0 0 0 0 0 0 0 0 127 0" result="hardAlpha"/>
<feOffset dy="12"/>
<feGaussianBlur stdDeviation="7"/>
<feComposite in2="hardAlpha" operator="out"/>
<feColorMatrix type="matrix" values="0 0 0 0 0.14902 0 0 0 0 0.372549 0 0 0 0 0.898039 0 0 0 0.1 0"/>
<feBlend mode="normal" in2="BackgroundImageFix" result="effect1_dropShadow_428_224"/>
<feBlend mode="normal" in="SourceGraphic" in2="effect1_dropShadow_428_224" result="shape"/>
</filter>
</defs>
</svg>
