<svg width="99" height="99" viewBox="0 0 99 99" fill="none" xmlns="http://www.w3.org/2000/svg">
<g filter="url(#filter0_d_428_227)">
<rect x="14" y="2" width="71" height="71" rx="14" fill="white"/>
</g>
<path fill-rule="evenodd" clip-rule="evenodd" d="M49.4999 11C47.1783 11 44.9616 11.7558 41.3859 12.9748L39.5845 13.5887C35.9162 14.8387 33.0852 15.8033 31.0586 16.6229C30.0377 17.0357 29.1601 17.4356 28.4533 17.8442C27.7732 18.2373 27.091 18.7277 26.6274 19.3852C26.1692 20.035 25.9323 20.834 25.7834 21.603C25.6286 22.4025 25.5353 23.3617 25.4751 24.4629C25.3555 26.6495 25.3555 29.6449 25.3555 33.5303V37.4787C25.3555 52.5185 36.7666 59.7292 43.5525 62.6801L43.6196 62.7093C44.4611 63.0753 45.252 63.4193 46.1608 63.6509C47.1203 63.8954 48.1398 64 49.4999 64C50.8601 64 51.8795 63.8954 52.839 63.6509C53.7478 63.4193 54.5387 63.0753 55.3801 62.7093L55.4473 62.6801C62.2333 59.7292 73.6444 52.5185 73.6444 37.4787V33.5307C73.6444 29.6452 73.6444 26.6495 73.5247 24.4629C73.4645 23.3617 73.3712 22.4025 73.2164 21.603C73.0675 20.834 72.8306 20.035 72.3724 19.3852C71.9089 18.7277 71.2266 18.2373 70.5465 17.8442C69.8398 17.4356 68.9621 17.0357 67.9412 16.6229C65.9146 15.8033 63.0836 14.8387 59.4153 13.5887L57.614 12.9748C54.0383 11.7558 51.8216 11 49.4999 11Z" fill="#265FE5"/>
<path d="M34.6071 41.8855H40.534V43.6666H31.4747V42.0237L36.0197 38.5689C36.5008 38.1696 36.854 37.8677 37.0792 37.6629C37.3146 37.4582 37.5296 37.1972 37.7241 36.8798C37.9288 36.5625 38.0312 36.2503 38.0312 35.9432C38.0312 35.4826 37.8623 35.1294 37.5245 34.8837C37.1867 34.638 36.7414 34.5152 36.1886 34.5152C34.8272 34.5152 34.0645 35.2471 33.9008 36.7109L31.7818 36.5574C31.8944 35.2676 32.3448 34.3105 33.133 33.686C33.9212 33.0514 34.9346 32.7341 36.1733 32.7341C37.3607 32.7341 38.3332 33.0053 39.0907 33.5479C39.8482 34.0802 40.2269 34.8581 40.2269 35.8818C40.2269 36.5164 40.0375 37.105 39.6588 37.6476C39.2903 38.1901 38.6402 38.8094 37.7087 39.5055L34.6071 41.8855ZM51.2409 39.5516V41.3327H49.3369V43.6666H47.1412V41.3327H40.984V39.6898L45.79 32.9183H49.3369V39.5516H51.2409ZM43.2411 39.5516H47.1412V34.0546L43.2411 39.5516ZM56.1513 32.427H58.1014L53.8635 44.6033H51.9134L56.1513 32.427ZM59.0706 32.9183H68.0839V34.4231C65.6578 37.4531 64.0865 40.5343 63.37 43.6666H61.0207C61.768 40.6162 63.37 37.6271 65.8267 34.6995H59.0706V32.9183Z" fill="white"/>
<defs>
<filter id="filter0_d_428_227" x="0" y="0" width="99" height="99" filterUnits="userSpaceOnUse" color-interpolation-filters="sRGB">
<feFlood flood-opacity="0" result="BackgroundImageFix"/>
<feColorMatrix in="SourceAlpha" type="matrix" values="0 0 0 0 0 0 0 0 0 0 0 0 0 0 0 0 0 0 127 0" result="hardAlpha"/>
<feOffset dy="12"/>
<feGaussianBlur stdDeviation="7"/>
<feComposite in2="hardAlpha" operator="out"/>
<feColorMatrix type="matrix" values="0 0 0 0 0.14902 0 0 0 0 0.372549 0 0 0 0 0.898039 0 0 0 0.1 0"/>
<feBlend mode="normal" in2="BackgroundImageFix" result="effect1_dropShadow_428_227"/>
<feBlend mode="normal" in="SourceGraphic" in2="effect1_dropShadow_428_227" result="shape"/>
</filter>
</defs>
</svg>
