<svg width="99" height="99" viewBox="0 0 99 99" fill="none" xmlns="http://www.w3.org/2000/svg">
<g filter="url(#filter0_d_428_196)">
<rect x="14" y="2" width="71" height="71" rx="14" fill="white"/>
</g>
<path d="M32 73H71C78.732 73 85 66.732 85 59V27H32V73Z" fill="#265FE5"/>
<path d="M65 49.203C62.3263 49.203 60.1562 47.0423 60.1562 44.3801C60.1562 41.7179 62.3263 39.5573 65 39.5573C67.6737 39.5573 69.8437 41.7179 69.8437 44.3801C69.8437 47.0423 67.6737 49.203 65 49.203ZM65 41.4864C63.3983 41.4864 62.0937 42.7853 62.0937 44.3801C62.0937 45.9749 63.3983 47.2738 65 47.2738C66.6017 47.2738 67.9062 45.9749 67.9062 44.3801C67.9062 42.7853 66.6017 41.4864 65 41.4864Z" fill="white"/>
<path d="M69.1464 57.4854C68.8752 57.4854 68.6039 57.4469 68.3327 57.3826C67.5318 57.1639 66.8602 56.6623 66.4339 55.955L66.2789 55.6978C65.5168 54.386 64.4706 54.386 63.7085 55.6978L63.5664 55.9421C63.1402 56.6623 62.4685 57.1768 61.6677 57.3826C60.8539 57.6012 60.0143 57.4854 59.3039 57.061L57.0822 55.7878C56.2943 55.3377 55.726 54.6046 55.4806 53.7172C55.2481 52.8298 55.3643 51.9167 55.8164 51.1321C56.191 50.4762 56.2943 49.8846 56.0747 49.5117C55.8552 49.1387 55.2997 48.9201 54.5377 48.9201C52.6518 48.9201 51.1147 47.3896 51.1147 45.5119V43.2484C51.1147 41.3707 52.6518 39.8402 54.5377 39.8402C55.2997 39.8402 55.8552 39.6216 56.0747 39.2486C56.2943 38.8757 56.2039 38.2841 55.8164 37.6282C55.3643 36.8436 55.2481 35.9177 55.4806 35.0431C55.7131 34.1557 56.2814 33.4226 57.0822 32.9725L59.3168 31.6993C60.7764 30.8376 62.701 31.3392 63.5793 32.8182L63.7343 33.0754C64.4964 34.3872 65.5427 34.3872 66.3047 33.0754L66.4468 32.831C67.3252 31.3392 69.2497 30.8376 70.7222 31.7121L72.9439 32.9854C73.7318 33.4355 74.3002 34.1686 74.5456 35.056C74.7781 35.9434 74.6618 36.8565 74.2097 37.641C73.8352 38.2969 73.7318 38.8885 73.9514 39.2615C74.171 39.6345 74.7264 39.8531 75.4885 39.8531C77.3743 39.8531 78.9114 41.3836 78.9114 43.2613V45.5248C78.9114 47.4025 77.3743 48.9329 75.4885 48.9329C74.7264 48.9329 74.171 49.1516 73.9514 49.5245C73.7318 49.8975 73.8222 50.4891 74.2097 51.145C74.6618 51.9295 74.791 52.8555 74.5456 53.7301C74.3131 54.6175 73.7447 55.3505 72.9439 55.8007L70.7093 57.0739C70.2185 57.344 69.6889 57.4854 69.1464 57.4854ZM65.0002 52.7269C66.1497 52.7269 67.2218 53.4471 67.9581 54.7203L68.1002 54.9647C68.2552 55.2348 68.5135 55.4277 68.8235 55.5049C69.1335 55.582 69.4435 55.5434 69.7018 55.3891L71.9364 54.103C72.2722 53.9101 72.5306 53.5886 72.6339 53.2028C72.7372 52.8169 72.6856 52.4182 72.4918 52.0839C71.7556 50.8235 71.6652 49.5245 72.2335 48.5342C72.8018 47.5439 73.9772 46.9781 75.4497 46.9781C76.2764 46.9781 76.9352 46.3222 76.9352 45.4991V43.2355C76.9352 42.4253 76.2764 41.7565 75.4497 41.7565C73.9772 41.7565 72.8018 41.1906 72.2335 40.2004C71.6652 39.2101 71.7556 37.9111 72.4918 36.6507C72.6856 36.3163 72.7372 35.9177 72.6339 35.5318C72.5306 35.146 72.2852 34.8373 71.9493 34.6316L69.7147 33.3583C69.1593 33.024 68.4231 33.2169 68.0872 33.7827L67.9452 34.0271C67.2089 35.3003 66.1368 36.0205 64.9872 36.0205C63.8377 36.0205 62.7656 35.3003 62.0293 34.0271L61.8872 33.7699C61.5643 33.2297 60.841 33.0368 60.2856 33.3583L58.051 34.6444C57.7152 34.8373 57.4568 35.1589 57.3535 35.5447C57.2502 35.9305 57.3018 36.3292 57.4956 36.6636C58.2318 37.924 58.3222 39.2229 57.7539 40.2132C57.1856 41.2035 56.0102 41.7694 54.5377 41.7694C53.711 41.7694 53.0522 42.4253 53.0522 43.2484V45.5119C53.0522 46.3222 53.711 46.9909 54.5377 46.9909C56.0102 46.9909 57.1856 47.5568 57.7539 48.5471C58.3222 49.5374 58.2318 50.8363 57.4956 52.0967C57.3018 52.4311 57.2502 52.8298 57.3535 53.2156C57.4568 53.6014 57.7022 53.9101 58.0381 54.1159L60.2727 55.3891C60.5439 55.5563 60.8668 55.5949 61.1639 55.5177C61.4739 55.4406 61.7322 55.2348 61.9002 54.9647L62.0422 54.7203C62.7785 53.46 63.8506 52.7269 65.0002 52.7269Z" fill="white"/>
<path d="M32 19.1861C32 16.8742 33.8742 15 36.1861 15H85V25H32V19.1861Z" fill="#265FE5"/>
<circle cx="41" cy="20" r="2" fill="white"/>
<circle cx="49" cy="20" r="2" fill="white"/>
<circle cx="59" cy="20" r="2" fill="white"/>
<defs>
<filter id="filter0_d_428_196" x="0" y="0" width="99" height="99" filterUnits="userSpaceOnUse" color-interpolation-filters="sRGB">
<feFlood flood-opacity="0" result="BackgroundImageFix"/>
<feColorMatrix in="SourceAlpha" type="matrix" values="0 0 0 0 0 0 0 0 0 0 0 0 0 0 0 0 0 0 127 0" result="hardAlpha"/>
<feOffset dy="12"/>
<feGaussianBlur stdDeviation="7"/>
<feComposite in2="hardAlpha" operator="out"/>
<feColorMatrix type="matrix" values="0 0 0 0 0.14902 0 0 0 0 0.372549 0 0 0 0 0.898039 0 0 0 0.1 0"/>
<feBlend mode="normal" in2="BackgroundImageFix" result="effect1_dropShadow_428_196"/>
<feBlend mode="normal" in="SourceGraphic" in2="effect1_dropShadow_428_196" result="shape"/>
</filter>
</defs>
</svg>
