<svg width="55" height="54" viewBox="0 0 55 54" fill="none" xmlns="http://www.w3.org/2000/svg">
<mask id="path-1-inside-1_181_277" fill="white">
<path d="M27.5 -2.61263e-06C20.2065 -2.93144e-06 13.2118 2.84463 8.05457 7.90811C2.89732 12.9716 2.04386e-06 19.8391 1.18021e-06 27C3.16557e-07 34.1608 2.89731 41.0284 8.05456 46.0919C13.2118 51.1554 20.2065 54 27.5 54L27.5 52.4461C20.6263 52.4461 14.0341 49.7652 9.17369 44.9931C4.31325 40.221 1.58268 33.7487 1.58268 27C1.58269 20.2513 4.31325 13.779 9.17369 9.00689C14.0341 4.23483 20.6263 1.55391 27.5 1.55391L27.5 -2.61263e-06Z"/>
</mask>
<path d="M27.5 -2.61263e-06C20.2065 -2.93144e-06 13.2118 2.84463 8.05457 7.90811C2.89732 12.9716 2.04386e-06 19.8391 1.18021e-06 27C3.16557e-07 34.1608 2.89731 41.0284 8.05456 46.0919C13.2118 51.1554 20.2065 54 27.5 54L27.5 52.4461C20.6263 52.4461 14.0341 49.7652 9.17369 44.9931C4.31325 40.221 1.58268 33.7487 1.58268 27C1.58269 20.2513 4.31325 13.779 9.17369 9.00689C14.0341 4.23483 20.6263 1.55391 27.5 1.55391L27.5 -2.61263e-06Z" stroke="#265FE5" stroke-width="12" mask="url(#path-1-inside-1_181_277)"/>
<path d="M17.9393 25.9393C17.3536 26.5251 17.3536 27.4749 17.9393 28.0607L27.4853 37.6066C28.0711 38.1924 29.0208 38.1924 29.6066 37.6066C30.1924 37.0208 30.1924 36.0711 29.6066 35.4853L21.1213 27L29.6066 18.5147C30.1924 17.9289 30.1924 16.9792 29.6066 16.3934C29.0208 15.8076 28.0711 15.8076 27.4853 16.3934L17.9393 25.9393ZM37 25.5L19 25.5V28.5L37 28.5V25.5Z" fill="#265FE5"/>
</svg>
