<svg width="232" height="79" viewBox="0 0 232 79" fill="none" xmlns="http://www.w3.org/2000/svg">
<g clip-path="url(#clip0_1_579)">
<path d="M70.4909 0.0673828H69.0682V78.9329H70.4909V0.0673828Z" fill="white"/>
<path fill-rule="evenodd" clip-rule="evenodd" d="M54.401 59.6284C50.8781 70.8613 40.3096 79.0001 27.8441 79.0001C15.3786 79.0001 4.81008 70.8613 1.25336 59.6284H12.3639C15.3109 65.1103 21.1371 68.8098 27.8441 68.8098C34.5511 68.8098 40.3434 65.1103 43.3243 59.6284H54.401Z" fill="white"/>
<path fill-rule="evenodd" clip-rule="evenodd" d="M51.0813 36.1537C51.1829 36.3218 51.3184 36.49 51.4201 36.6582V36.6918C54.1299 40.9293 55.6881 45.974 55.6881 51.355C55.6881 52.3976 55.6204 53.4066 55.5188 54.3819H45.1535C45.3228 53.4066 45.4244 52.3976 45.4244 51.355C45.4244 48.0928 44.5437 44.8978 42.7484 42.1401C42.6807 42.0055 42.6129 41.9046 42.5113 41.7701L42.4774 41.7029L36.4818 32.4542C42.071 32.5215 47.2875 31.9161 47.2875 31.9161L46.7116 29.4274L51.0813 36.1537ZM23.6776 25.2235L18.5966 33.1941H31.1637L36.6173 41.5683L37.8368 43.6535H12.059C10.8734 46.0413 10.2637 48.6645 10.2637 51.355C10.2637 52.3976 10.3653 53.4066 10.5347 54.3819H0.169368C0.0677471 53.4066 0 52.3976 0 51.355C0 45.974 1.55818 40.9293 4.26807 36.6918L22.1872 8.4751C26.0149 11.0647 27.3021 19.5734 23.6776 25.2235Z" fill="#0298CF"/>
<path fill-rule="evenodd" clip-rule="evenodd" d="M51.0813 36.1537C51.183 36.3218 51.3185 36.49 51.4201 36.6582V36.6918C54.13 40.9293 55.6881 45.974 55.6881 51.3551C55.6881 52.3976 55.6204 53.4066 55.5188 54.3819H45.1535C45.3228 53.4066 45.4245 52.3976 45.4245 51.3551C45.4245 48.0928 44.5437 44.8978 42.7484 42.1401C42.6807 42.0055 42.6129 41.9046 42.5113 41.7701L42.4775 41.7029L29.47 21.6922C26.6246 17.2865 25.7439 13.4862 25.71 8.20605C25.6762 2.99319 27.5731 0 27.5731 0L51.0813 36.1537Z" fill="#0298CF"/>
<path d="M104.568 27.4434L104.297 26.8044L100.232 17.354H99.1818L95.1169 26.8044L94.846 27.4434L93.22 31.1765H94.9815L96.167 28.4187H103.213L104.432 31.1765H106.194L104.568 27.4434ZM96.8784 26.8044L99.6899 20.2127L102.535 26.8044H96.8784Z" fill="white"/>
<path d="M115.035 23.7103L114.527 24.2821L111.173 28.1833V17.354H109.547V31.1765H110.733L115.61 25.5264L120.488 31.1765H122.622L116.661 24.2821L122.622 17.354H120.488L115.035 23.7103Z" fill="white"/>
<path d="M136.544 24.2821C137.459 23.5758 138.069 22.466 138.069 21.2216C138.069 19.1028 136.307 17.354 134.173 17.354H125.942V31.1765H134.173C136.307 31.1765 138.069 29.4613 138.069 27.3425C138.069 26.0982 137.459 24.9883 136.544 24.2821ZM134.173 29.5622H127.568V25.0892H134.173C135.426 25.0892 136.443 26.0982 136.443 27.3425C136.443 28.5532 135.426 29.5622 134.173 29.5622ZM134.173 23.4749H127.568V18.9683H134.173C135.426 18.9683 136.443 19.9772 136.443 21.2216C136.443 22.466 135.426 23.4749 134.173 23.4749Z" fill="white"/>
<path d="M151.584 27.4434L151.313 26.8044L147.248 17.354H146.164L142.1 26.8044L141.829 27.4434L140.237 31.1765H141.998L143.184 28.4187H150.229L151.415 31.1765H153.21L151.584 27.4434ZM143.895 26.8044L146.706 20.2127L149.552 26.8044H143.895Z" fill="white"/>
<path d="M159.815 18.9683V31.1765H161.441V18.9683H166.692V17.354H154.565V18.9683H159.815Z" fill="white"/>
<path d="M170.045 17.354V31.1765H182.172V29.5622H171.671V25.0892H178.446V23.4749H171.671V18.9683H182.172V17.354H170.045Z" fill="white"/>
<path d="M192.537 23.0377L187.66 17.354H185.526L191.487 24.2821L185.526 31.1765H187.66L192.537 25.5264L197.415 31.1765H199.549L193.621 24.2821L199.549 17.354H197.415L192.537 23.0377Z" fill="white"/>
<path d="M204.495 23.4749V17.354H202.869V31.1765H204.495V25.0892H213.403V31.1765H215.029V17.354H213.403V23.4749H204.495Z" fill="white"/>
<path d="M225.022 17.354C221.194 17.354 218.078 20.4481 218.078 24.2821C218.078 28.0824 221.194 31.1765 225.022 31.1765C228.884 31.1765 232 28.0824 232 24.2821C232 20.4481 228.884 17.354 225.022 17.354ZM225.022 29.5622C222.075 29.5622 219.704 27.208 219.704 24.2821C219.704 21.3561 222.075 18.9683 225.022 18.9683C227.969 18.9683 230.374 21.3561 230.374 24.2821C230.374 27.208 227.969 29.5622 225.022 29.5622Z" fill="white"/>
<path d="M98.2672 56.635C96.6751 55.0543 95.7944 52.9355 95.7944 50.7159C95.7944 48.4626 96.6751 46.3438 98.2672 44.7631C101.553 41.5009 106.939 41.5009 110.225 44.7631L112.054 42.947C107.752 38.6759 100.74 38.6759 96.438 42.947C94.3717 45.0322 93.22 47.7899 93.22 50.7159C93.22 53.6418 94.3717 56.3659 96.438 58.4511C98.6059 60.5699 101.417 61.6461 104.229 61.6461C107.074 61.6461 109.886 60.5699 112.054 58.4511L110.225 56.635C106.939 59.8972 101.553 59.8972 98.2672 56.635Z" fill="#0298CF"/>
<path d="M116.491 39.7524V61.6464H135.697V59.0905H119.066V51.9942H129.803V49.4383H119.066V42.3084H135.697V39.7524H116.491Z" fill="#0298CF"/>
<path d="M154.057 39.7524H141.016V61.6464H143.59V51.9942H154.057C157.444 51.9942 160.222 49.2365 160.222 45.8733C160.222 42.5102 157.444 39.7524 154.057 39.7524ZM154.057 49.4383H143.59V42.3084H154.057C156.022 42.3084 157.648 43.8891 157.648 45.8733C157.648 47.824 156.022 49.4383 154.057 49.4383Z" fill="#0298CF"/>
<path d="M181.833 50.7163C183.324 49.5728 184.238 47.824 184.238 45.8733C184.238 42.5102 181.495 39.7524 178.107 39.7524H165.032V61.6464H178.107C181.495 61.6464 184.238 58.9223 184.238 55.5255C184.238 53.5749 183.324 51.8261 181.833 50.7163ZM178.107 59.0905H167.606V51.9942H178.107C180.072 51.9942 181.698 53.5749 181.698 55.5255C181.698 57.5098 180.072 59.0905 178.107 59.0905ZM178.107 49.4383H167.606V42.3084H178.107C180.072 42.3084 181.698 43.8891 181.698 45.8733C181.698 47.824 180.072 49.4383 178.107 49.4383Z" fill="#0298CF"/>
<path d="M191.657 39.7524H189.082V61.6464H190.945L205.714 44.4945V61.6464H208.289V39.7524H206.426L191.657 56.9044V39.7524Z" fill="#0298CF"/>
<path d="M218.18 56.635C216.588 55.0543 215.707 52.9355 215.707 50.7159C215.707 48.4626 216.588 46.3438 218.18 44.7631C221.465 41.5009 226.817 41.5009 230.137 44.7631L231.932 42.947C227.664 38.6759 220.652 38.6759 216.35 42.947C214.284 45.0322 213.132 47.7899 213.132 50.7159C213.132 53.6418 214.284 56.3659 216.35 58.4511C218.518 60.5699 221.33 61.6461 224.141 61.6461C226.987 61.6461 229.798 60.5699 231.932 58.4511L230.137 56.635C226.817 59.8972 221.465 59.8972 218.18 56.635Z" fill="#0298CF"/>
</g>
<defs>
<clipPath id="clip0_1_579">
<rect width="232" height="79" fill="white"/>
</clipPath>
</defs>
</svg>
