<svg width="85" height="85" viewBox="0 0 85 85" fill="none" xmlns="http://www.w3.org/2000/svg">
<g filter="url(#filter0_d_123_501)">
<rect x="14" y="2" width="57" height="57" rx="14" fill="white"/>
</g>
<path d="M34.0001 15V25C34 26.5 35 25.5 37 25.5C40 25.5 37.5001 30 41.0001 30C44.5001 30 42.889 26.607 45.0001 26.607C46.8254 26.607 47.461 28.1662 47.461 31.8042C47.461 34.7146 51.1628 34.7492 50.9945 31.8042V26.607V15H34.0001Z" fill="#265FE5" stroke="white"/>
<path fill-rule="evenodd" clip-rule="evenodd" d="M38.5639 26.1973H35.6269C34.6887 26.1973 33.5902 26.9273 33.2318 27.7912L31.7155 31.4596L30.1215 31.0243C29.5071 30.8568 29 31.2503 29 31.8681V32.6718C29 33.3063 29.522 33.8203 30.1595 33.8203H30.741L30.3495 34.7714C29.9861 35.647 29.6871 37.1338 29.6871 38.0798V44.9192C29.6871 45.5555 30.2091 46.0695 30.85 46.0695H32.7379C33.3755 46.0695 33.8958 45.5555 33.8958 44.9192V42.9268H50.6876V44.9192C50.6876 45.5555 51.2096 46.0695 51.8455 46.0695H53.7335C54.3744 46.0695 54.8963 45.5555 54.8963 44.9192V38.0798C54.8963 37.1338 54.6007 35.6504 54.2389 34.7714L53.8458 33.8203H54.4421C55.0846 33.8203 55.6049 33.3063 55.6049 32.6718V31.8681C55.6049 31.2503 55.0995 30.8535 54.4817 31.0243L52.8696 31.4663L51.3533 27.7912C51.2697 27.5907 51.1463 27.3973 50.9944 27.2187V30.3571L52.2585 33.2645C52.4088 33.6094 52.3939 33.961 52.2205 34.2272C52.0355 34.5102 51.6969 34.6692 51.2839 34.6692H33.3028C32.8916 34.6692 32.548 34.5102 32.363 34.2272C32.1912 33.961 32.1763 33.6094 32.325 33.2645L34.4805 28.3102C34.768 27.6472 35.5823 27.1299 36.3322 27.1299H38.7572C38.7072 26.8026 38.6516 26.4841 38.5639 26.1973ZM43.9812 27.1299H46.433C46.0706 26.7752 45.5995 26.607 45 26.607C44.4763 26.607 44.1816 26.8158 43.9812 27.1299ZM52.6797 37.9626V39.9114C52.6797 40.3853 52.2948 40.7704 51.8207 40.7704H47.7293C47.2553 40.7704 46.8688 40.3853 46.8688 39.9114V37.9626C46.8688 37.4921 47.2553 37.107 47.7293 37.107H51.8207C52.2948 37.107 52.6797 37.4921 52.6797 37.9626ZM37.6767 37.9626V39.9114C37.6767 40.3853 37.2918 40.7704 36.8161 40.7704H32.7264C32.249 40.7704 31.8658 40.3853 31.8658 39.9114V37.9626C31.8658 37.4921 32.249 37.107 32.7264 37.107H36.8161C37.2918 37.107 37.6767 37.4921 37.6767 37.9626Z" fill="#265FE5"/>
<defs>
<filter id="filter0_d_123_501" x="0" y="0" width="85" height="85" filterUnits="userSpaceOnUse" color-interpolation-filters="sRGB">
<feFlood flood-opacity="0" result="BackgroundImageFix"/>
<feColorMatrix in="SourceAlpha" type="matrix" values="0 0 0 0 0 0 0 0 0 0 0 0 0 0 0 0 0 0 127 0" result="hardAlpha"/>
<feOffset dy="12"/>
<feGaussianBlur stdDeviation="7"/>
<feComposite in2="hardAlpha" operator="out"/>
<feColorMatrix type="matrix" values="0 0 0 0 0.14902 0 0 0 0 0.372549 0 0 0 0 0.898039 0 0 0 0.1 0"/>
<feBlend mode="normal" in2="BackgroundImageFix" result="effect1_dropShadow_123_501"/>
<feBlend mode="normal" in="SourceGraphic" in2="effect1_dropShadow_123_501" result="shape"/>
</filter>
</defs>
</svg>
