<svg width="85" height="85" viewBox="0 0 85 85" fill="none" xmlns="http://www.w3.org/2000/svg">
<g filter="url(#filter0_d_123_490)">
<rect x="14" y="2" width="57" height="57" rx="14" fill="white"/>
</g>
<path d="M55.5295 31.1786V31.9569C55.5295 32.5719 55.0334 33.0699 54.4169 33.0699H53.8426L54.2184 33.9949C54.5698 34.8457 54.8512 36.2803 54.8512 37.2053V43.8322C54.8512 44.4489 54.3486 44.9502 53.7337 44.9502H51.9248C51.3131 44.9502 50.8105 44.4489 50.8105 43.8322V41.903H34.6947V43.8322C34.6947 44.4489 34.1985 44.9502 33.5869 44.9502H31.7731C31.1582 44.9502 30.6556 44.4489 30.6556 43.8322V37.2053C30.6556 36.2803 30.9451 34.8424 31.2916 33.9949L31.6674 33.0699H31.1127C30.4961 33.0699 30 32.5719 30 31.9569V31.1786C30 30.5767 30.4864 30.1958 31.0753 30.3574L32.6027 30.7779L33.3624 28.9179C33.8797 28.9179 34.2701 28.7794 34.3758 28.7333C34.6003 28.6442 34.7939 28.5304 34.9696 28.3985L33.1916 32.5307C33.0468 32.8654 33.0582 33.2067 33.2258 33.4672C33.4031 33.7393 33.7349 33.8976 34.1286 33.8976H51.3847C51.78 33.8976 52.1021 33.7393 52.2826 33.4672C52.4486 33.2067 52.4648 32.8654 52.32 32.5307L50.9113 29.2609C51.0854 29.2823 51.2627 29.2955 51.4433 29.2955C51.723 29.2955 51.9963 29.2675 52.2631 29.2131L52.9057 30.7861L54.451 30.3574C55.0432 30.1958 55.5295 30.5767 55.5295 31.1786ZM52.7235 38.9795V37.0899C52.7235 36.6315 52.3542 36.2588 51.8987 36.2588H47.9735C47.518 36.2588 47.1455 36.6315 47.1455 37.0899V38.9795C47.1455 39.4379 47.518 39.8089 47.9735 39.8089H51.8987C52.3542 39.8089 52.7235 39.4379 52.7235 38.9795ZM38.3239 38.9795V37.0899C38.3239 36.6315 37.9546 36.2588 37.4991 36.2588H33.5755C33.1184 36.2588 32.7459 36.6315 32.7459 37.0899V38.9795C32.7459 39.4379 33.1184 39.8089 33.5755 39.8089H37.4991C37.9546 39.8089 38.3239 39.4379 38.3239 38.9795Z" fill="#265FE5"/>
<path d="M51.4433 21.1664C53.4994 21.1664 55.1668 22.8615 55.1668 24.944C55.1668 26.6243 54.0801 28.0539 52.5754 28.5419L51.9475 27.0117C51.5197 25.9564 50.2883 25.127 49.1528 25.127H47.9084C48.5672 24.4972 49.0764 23.6975 49.3562 22.7576C49.4635 22.3981 49.5319 22.042 49.566 21.6825C50.1159 21.356 50.76 21.1664 51.4433 21.1664Z" fill="#265FE5"/>
<path d="M52.6518 18.032C52.7234 18.3585 52.6632 18.6932 52.4826 18.9752C52.115 19.5556 51.3439 19.7271 50.7713 19.3511C50.1971 18.9785 50.0295 18.2018 50.4021 17.6148C50.6379 17.2455 51.0365 17.0427 51.4431 17.0427C51.6758 17.0427 51.9068 17.1053 52.1117 17.2405C52.3883 17.4236 52.5835 17.7039 52.6518 18.032Z" fill="#265FE5"/>
<path d="M52.1525 28.944L52.2631 29.2128C51.9963 29.2672 51.723 29.2952 51.4432 29.2952C51.2627 29.2952 51.0854 29.282 50.9113 29.2589L50.7779 28.9523C50.9943 28.9869 51.2139 29.0067 51.4432 29.0067C51.6856 29.0067 51.9215 28.9836 52.1525 28.944Z" fill="#265FE5"/>
<path d="M52.0402 28.6671L52.1541 28.9457C51.9215 28.9836 51.6856 29.0067 51.4432 29.0067C51.2155 29.0067 50.9959 28.9886 50.7779 28.9523L50.638 28.6291C50.8966 28.6868 51.1651 28.7182 51.4432 28.7182C51.6433 28.7182 51.845 28.7033 52.0402 28.6671Z" fill="#265FE5"/>
<path d="M51.4497 27.2244L52.0386 28.6689C51.845 28.7035 51.6433 28.7183 51.4416 28.7183C51.165 28.7183 50.8934 28.687 50.6364 28.6293L50.2492 27.724C49.9759 27.0859 49.1967 26.5847 48.4712 26.5847H48.0873C47.9507 26.2994 47.8466 25.996 47.788 25.6761H49.1512C50.0507 25.6761 51.1032 26.3851 51.4497 27.2244Z" fill="#265FE5"/>
<path d="M49.566 21.6823C49.5319 22.0417 49.4635 22.3979 49.3562 22.7573C49.0764 23.6956 48.5672 24.4969 47.9084 25.1252H47.7197C47.7165 25.0675 47.7165 25.0048 47.7165 24.9438V24.9141C48.3395 24.3205 48.821 23.5571 49.0878 22.6716C49.1675 22.4094 49.2244 22.1489 49.2586 21.8851C49.3562 21.8142 49.4603 21.7449 49.566 21.6823Z" fill="#265FE5"/>
<path d="M49.2586 21.8851C49.2244 22.1472 49.1675 22.4094 49.0878 22.6716C48.821 23.557 48.3395 24.3188 47.7165 24.9124C47.7278 23.6692 48.3314 22.5677 49.2586 21.8851Z" fill="#265FE5"/>
<path d="M49.3122 21.1662C48.0205 21.9131 47.1454 23.3262 47.1454 24.9438C47.1454 25.0065 47.1454 25.0642 47.1486 25.1268H43.7732C43.7879 24.9751 43.7944 24.8251 43.7944 24.675C43.7944 22.1868 41.8 20.1653 39.3502 20.1653C39.3079 20.1653 39.2672 20.1653 39.2249 20.1686C39.251 19.9954 39.2933 19.8273 39.3469 19.6574C40.1668 16.9334 43.0201 15.3934 45.7057 16.2261C47.8985 16.9038 49.3122 18.955 49.3122 21.1662Z" fill="#265FE5"/>
<path d="M48.089 26.5848H47.7717C47.6481 26.2979 47.5538 25.9929 47.4952 25.6779H47.788C47.8498 25.9962 47.9523 26.3012 48.089 26.5848Z" fill="#265FE5"/>
<path d="M47.7718 26.5848H47.466C47.3505 26.3045 47.2643 26.0044 47.2106 25.6961C47.2171 25.6878 47.2285 25.6845 47.2366 25.6779H47.4953C47.5522 25.9929 47.6482 26.2979 47.7718 26.5848Z" fill="#265FE5"/>
<path d="M47.4659 26.5845H44.8177C45.6798 26.4855 46.4997 26.1772 47.2105 25.6957C47.2642 26.0041 47.3504 26.3042 47.4659 26.5845Z" fill="#265FE5"/>
<path d="M47.2073 25.6761H47.2366C47.2301 25.6844 47.2187 25.6877 47.2106 25.6943C47.2106 25.6877 47.2073 25.6844 47.2073 25.6761Z" fill="#265FE5"/>
<path d="M47.2073 25.6761C47.2073 25.6844 47.2106 25.6877 47.2106 25.6943C46.5014 26.1757 45.6799 26.4841 44.8177 26.5847H43.6286C43.5489 26.5764 43.4692 26.5649 43.3895 26.5533C43.4301 26.4659 43.4692 26.3736 43.5033 26.278C44.6241 26.4379 45.7417 26.212 46.6901 25.6761H47.2073Z" fill="#265FE5"/>
<path d="M43.6822 25.6761H46.69C45.7416 26.212 44.6241 26.4379 43.5033 26.278C43.5781 26.0834 43.6399 25.8822 43.6822 25.6761Z" fill="#265FE5"/>
<path d="M43.3926 25.6761H43.6821C43.6398 25.8822 43.578 26.0834 43.5016 26.278C43.4072 26.2648 43.3129 26.2499 43.2218 26.2269C43.2901 26.0488 43.347 25.8641 43.3926 25.6761Z" fill="#265FE5"/>
<path d="M43.6286 26.5849H43.3781C43.3813 26.5733 43.3862 26.5667 43.3895 26.5552C43.4692 26.5667 43.5489 26.5766 43.6286 26.5849Z" fill="#265FE5"/>
<path d="M43.2218 26.2271C43.3129 26.2502 43.4073 26.265 43.5016 26.2782C43.4691 26.3738 43.43 26.4662 43.3894 26.5535C43.2934 26.5387 43.1974 26.5206 43.1031 26.4991C43.1454 26.4117 43.1828 26.3194 43.2218 26.2271Z" fill="#265FE5"/>
<path d="M43.0998 25.6761H43.3926C43.3471 25.8641 43.2902 26.0488 43.2218 26.2269C43.1259 26.212 43.0315 26.1873 42.9372 26.1609C43.0022 26.0026 43.0543 25.841 43.0998 25.6761Z" fill="#265FE5"/>
<path d="M43.3878 26.5531C43.3845 26.5646 43.3797 26.5712 43.3764 26.5844H43.0592C43.0771 26.5564 43.0869 26.53 43.1031 26.4987C43.1975 26.5185 43.2934 26.5382 43.3878 26.5531Z" fill="#265FE5"/>
<path d="M43.2251 24.6752C43.2251 24.8286 43.217 24.9803 43.1975 25.1254H40.9493C39.6984 24.0635 39.0038 22.4311 39.1404 20.7475C39.2088 20.7426 39.2771 20.7426 39.3503 20.7426C41.4845 20.7426 43.2251 22.5053 43.2251 24.6752Z" fill="#265FE5"/>
<path d="M43.2219 26.2269C43.1828 26.3193 43.1454 26.4116 43.1031 26.499C43.0055 26.4809 42.9112 26.4578 42.8136 26.4314C42.8607 26.3424 42.8982 26.2533 42.9372 26.161C43.0315 26.1874 43.1259 26.2121 43.2219 26.2269Z" fill="#265FE5"/>
<path d="M43.103 26.4988C43.0884 26.5302 43.077 26.5565 43.0623 26.5846H42.7305C42.7614 26.5351 42.7874 26.484 42.8135 26.4312C42.9078 26.4576 43.0054 26.4807 43.103 26.4988Z" fill="#265FE5"/>
<path d="M41.735 25.6761H43.0982C43.0526 25.841 43.0006 26.0026 42.9355 26.1609C42.864 26.1461 42.7956 26.1246 42.7257 26.1032C42.3759 25.996 42.0425 25.8493 41.735 25.6761Z" fill="#265FE5"/>
<path d="M42.7273 26.1032C42.7956 26.1279 42.864 26.1461 42.9372 26.1609C42.8981 26.2532 42.8607 26.3423 42.8152 26.4313C42.7566 26.4148 42.7013 26.4 42.6444 26.3819C42.1157 26.2153 41.6293 25.9779 41.1966 25.6761H41.7367C42.0441 25.8493 42.3792 25.996 42.7273 26.1032Z" fill="#265FE5"/>
<path d="M42.6444 26.3802C42.7013 26.3983 42.7582 26.4148 42.8152 26.4313C42.7891 26.4841 42.7631 26.5335 42.7322 26.5847H39.2332C39.347 26.4099 39.4153 26.2153 39.4414 26.0405C39.4609 25.9136 39.4609 25.7948 39.4381 25.6761H41.1966C41.6309 25.9762 42.1157 26.2153 42.6444 26.3802Z" fill="#265FE5"/>
<path d="M40.9493 25.1253H40.5199C39.3649 24.0155 38.7321 22.4211 38.8509 20.7771C38.9469 20.7606 39.0412 20.754 39.1404 20.7458C39.0038 22.4277 39.6984 24.0617 40.9493 25.1253Z" fill="#265FE5"/>
<path d="M40.5199 25.1254H39.2544C39.2283 25.0594 39.199 24.9902 39.1633 24.9176C39.012 24.5763 38.8298 24.2498 38.6232 23.9382L38.3694 23.549L38.1563 23.9612C38.0669 24.1426 37.9074 24.4543 37.6976 24.8467L37.6358 24.9588C37.6032 25.0199 37.5756 25.0743 37.5496 25.1254H36.3588C36.3068 25.1254 36.2498 25.1254 36.1961 25.1336C36.105 24.6538 35.9066 24.1459 35.6382 23.5309C36.0741 22.0749 37.3251 20.9734 38.8526 20.7772C38.7354 22.4212 39.365 24.0157 40.5199 25.1254Z" fill="#265FE5"/>
<path d="M38.8834 25.6761C38.9094 25.78 38.9208 25.8674 38.9061 25.9564C38.898 25.996 38.8297 26.3736 38.5483 26.4808C38.5401 26.4841 38.3514 26.5566 38.1676 26.4758C37.9187 26.3621 37.8455 26.0257 37.8455 25.8641C37.8455 25.8064 37.8537 25.7569 37.8878 25.6761H38.8834Z" fill="#265FE5"/>
<path d="M38.8835 25.6759H37.8879C37.9107 25.61 37.9514 25.5259 38.0164 25.4022H38.7761C38.8265 25.5094 38.8558 25.5984 38.8835 25.6759Z" fill="#265FE5"/>
<path d="M38.7761 25.4022H38.0164C38.0457 25.3478 38.0766 25.2867 38.114 25.2175L38.1644 25.1252H38.6573C38.6573 25.1334 38.6606 25.1367 38.6671 25.1449C38.7078 25.2439 38.7468 25.3296 38.7761 25.4022Z" fill="#265FE5"/>
<path d="M38.6573 25.1253H38.1644L38.1709 25.1088C38.262 24.939 38.3482 24.7823 38.4149 24.6471C38.5028 24.8005 38.5808 24.962 38.6573 25.1253Z" fill="#265FE5"/>
<path d="M37.7187 28.8686C37.9546 29.416 38.0457 29.6897 37.9969 30.0047C37.9774 30.1317 37.8521 30.7632 37.3316 30.9709C37.2942 30.9874 36.9509 31.1128 36.6109 30.9561C36.1262 30.7401 35.9928 30.1514 35.9895 29.8398C35.9895 29.5859 36.0709 29.4325 36.4418 28.7334L36.5345 28.5602C36.5865 28.4646 36.637 28.3723 36.6858 28.2832C37.0013 28.5223 37.3462 28.7218 37.7187 28.8686Z" fill="#265FE5"/>
<path d="M37.6097 28.6262C37.6471 28.7103 37.6862 28.7911 37.7187 28.8686C37.3462 28.7219 37.0013 28.5224 36.6857 28.2833C36.7313 28.1942 36.7785 28.1052 36.8191 28.0244C37.0436 28.1975 37.2811 28.3525 37.5414 28.4762C37.5642 28.5273 37.5853 28.5751 37.6097 28.6262Z" fill="#265FE5"/>
<path d="M37.5105 26.5848H37.0778L37.0062 26.4744L36.9444 26.5881C36.6597 26.6046 36.3701 26.697 36.1099 26.8404C36.0936 26.8157 36.079 26.7893 36.0676 26.7662C36.1587 26.4892 36.1993 26.2649 36.2156 26.166C36.2433 26.0011 36.253 25.8428 36.253 25.6812C36.2872 25.6779 36.3262 25.6779 36.3587 25.6779H37.3218C37.3055 25.7389 37.3022 25.7999 37.3022 25.8692C37.3055 26.1033 37.3689 26.3672 37.5105 26.5848Z" fill="#265FE5"/>
<path d="M37.3137 28.0208C37.3934 28.1709 37.4698 28.3209 37.5414 28.4759C37.2828 28.3523 37.0436 28.1973 36.8192 28.0241C36.8696 27.9318 36.9151 27.8477 36.9558 27.7669C37.0713 27.8592 37.1884 27.9433 37.3137 28.0208Z" fill="#265FE5"/>
<path d="M37.0599 27.5623C37.1477 27.7123 37.2339 27.8673 37.3136 28.0207C37.1884 27.9432 37.0712 27.8591 36.9557 27.7667C36.9915 27.6942 37.0241 27.6282 37.0599 27.5623Z" fill="#265FE5"/>
<path d="M37.0062 26.4727L37.0777 26.5848H37.0354C37.0062 26.5848 36.9752 26.5848 36.9443 26.5881L37.0062 26.4727Z" fill="#265FE5"/>
<path d="M36.5393 18.8216C36.7329 19.252 36.8077 19.4334 36.7784 19.6329C36.7703 19.6725 36.702 20.0501 36.4205 20.1573C36.414 20.1606 36.2221 20.2348 36.0415 20.154C35.791 20.0369 35.7178 19.7022 35.7178 19.5406C35.7178 19.4103 35.7585 19.3213 35.9878 18.8942L36.0448 18.7854C36.1359 18.6172 36.2188 18.4589 36.2872 18.3237C36.3799 18.4886 36.4628 18.6518 36.5393 18.8216Z" fill="#265FE5"/>
<path d="M36.0676 26.7662C36.079 26.7893 36.0936 26.8156 36.1083 26.8387C36.0822 26.8552 36.0513 26.8701 36.0253 26.8882C36.0399 26.847 36.0513 26.8041 36.0676 26.7662Z" fill="#265FE5"/>
<path d="M35.8008 27.3891C35.8008 27.3924 35.8041 27.3974 35.8089 27.4007C35.7976 27.4122 35.7862 27.4238 35.7748 27.4402C35.7862 27.4188 35.7927 27.404 35.8008 27.3891Z" fill="#265FE5"/>
<path d="M35.7 25.5011C35.7113 25.5984 35.7113 25.6907 35.7081 25.7864C35.6837 25.7946 35.6609 25.8012 35.6398 25.8095C35.6137 25.7204 35.5861 25.633 35.5698 25.544C35.617 25.5291 35.6577 25.5127 35.7 25.5011Z" fill="#265FE5"/>
<path d="M35.7065 25.7864C35.7065 25.8523 35.7033 25.9134 35.6902 25.9793C35.6707 25.9216 35.6528 25.8672 35.6382 25.8095C35.661 25.8012 35.6821 25.7946 35.7065 25.7864Z" fill="#265FE5"/>
<path d="M35.6902 25.9811C35.6869 26.0108 35.682 26.0454 35.6788 26.0768C35.6674 26.151 35.6414 26.2961 35.5844 26.4807C35.5015 26.3043 35.4283 26.1147 35.3713 25.9234C35.4592 25.8805 35.5454 25.8426 35.6381 25.8096C35.6528 25.869 35.6723 25.9234 35.6902 25.9811Z" fill="#265FE5"/>
<path d="M35.6609 25.2259C35.6788 25.3182 35.6902 25.4105 35.7 25.5029C35.6577 25.5128 35.617 25.5309 35.5698 25.5457C35.5454 25.4534 35.5275 25.3594 35.5161 25.2671C35.5666 25.2522 35.6105 25.2374 35.6609 25.2259Z" fill="#265FE5"/>
<path d="M35.6609 25.2261C35.6104 25.2376 35.5665 25.2525 35.5161 25.2673C35.4868 25.076 35.4722 24.8749 35.4722 24.6754C35.4722 24.6407 35.4722 24.6061 35.4754 24.5715C35.5584 24.8089 35.6235 25.0216 35.6609 25.2261Z" fill="#265FE5"/>
<path d="M35.5698 25.5444C35.5845 25.6334 35.6105 25.7208 35.6382 25.8099C35.5454 25.8412 35.4592 25.8791 35.3714 25.922C35.3454 25.833 35.3193 25.7456 35.2998 25.6516C35.3876 25.6104 35.4787 25.5741 35.5698 25.5444Z" fill="#265FE5"/>
<path d="M35.5161 25.2673C35.5275 25.3597 35.5454 25.4537 35.5698 25.546C35.4787 25.5757 35.3876 25.6103 35.2998 25.6532C35.277 25.5608 35.2591 25.4685 35.2428 25.3729C35.3307 25.3333 35.425 25.2987 35.5161 25.2673Z" fill="#265FE5"/>
<path d="M35.5845 26.4809C35.5552 26.5914 35.5129 26.72 35.4544 26.8552C35.3194 26.6046 35.2039 26.3374 35.1176 26.0621C35.2006 26.0077 35.2836 25.9648 35.3714 25.9236C35.4283 26.1148 35.5015 26.3045 35.5845 26.4809Z" fill="#265FE5"/>
<path d="M35.4723 24.6755C35.4723 24.875 35.4869 25.0762 35.5162 25.2674C35.4267 25.2988 35.3307 25.3334 35.2445 25.373C35.2055 25.1454 35.1876 24.9146 35.1876 24.6755C35.1876 24.4413 35.2055 24.2138 35.2445 23.9895C35.3356 24.2006 35.4105 24.3935 35.4755 24.5699C35.4723 24.6062 35.4723 24.6392 35.4723 24.6755Z" fill="#265FE5"/>
<path d="M35.4543 26.8534C35.251 27.353 34.8703 27.9466 34.179 28.2203C34.1107 28.2467 33.8943 28.3275 33.5934 28.3539L34.057 27.2227C34.2473 26.7644 34.6459 26.3439 35.1176 26.0603C35.2038 26.3373 35.3193 26.6044 35.4543 26.8534Z" fill="#265FE5"/>
<path d="M35.2998 25.6515C35.3193 25.7455 35.3453 25.8329 35.3713 25.9219C35.2851 25.9631 35.2022 26.006 35.1176 26.0604C35.0883 25.9714 35.0606 25.8791 35.0379 25.7867C35.1225 25.7356 35.2087 25.6944 35.2998 25.6515Z" fill="#265FE5"/>
<path d="M35.2428 25.3726C35.2574 25.4682 35.277 25.5606 35.2981 25.6529C35.207 25.6958 35.1208 25.7387 35.0378 25.7881C35.0151 25.6958 34.9907 25.6002 34.976 25.5029C35.059 25.4534 35.1501 25.4105 35.2428 25.3726Z" fill="#265FE5"/>
<path d="M35.2428 23.9894C35.2038 24.2136 35.1859 24.4395 35.1859 24.6753C35.1859 24.9144 35.2038 25.1452 35.2428 25.3711C35.1501 25.4091 35.059 25.4536 34.976 25.5014C34.9272 25.2326 34.8996 24.9556 34.8996 24.6753C34.8996 24.2829 34.95 23.897 35.0443 23.5343C35.1175 23.6959 35.181 23.8459 35.2428 23.9894Z" fill="#265FE5"/>
<path d="M35.1176 26.0619C34.6475 26.3455 34.2473 26.766 34.057 27.2244L33.595 28.3555C33.5039 28.3687 33.403 28.372 33.2973 28.3638L33.8113 27.1156C34.0309 26.5813 34.4913 26.1031 35.0379 25.7882C35.0607 25.8805 35.0883 25.9712 35.1176 26.0619Z" fill="#265FE5"/>
<path d="M35.0379 25.7864C34.4913 26.1013 34.031 26.5811 33.8114 27.1154L33.2973 28.3636C33.2062 28.3636 33.1168 28.3537 33.0159 28.3389L33.5608 27.0115C33.8146 26.3882 34.3465 25.8408 34.9761 25.5011C34.9923 25.5984 35.0151 25.694 35.0379 25.7864Z" fill="#265FE5"/>
<path d="M34.8817 23.1617C34.9386 23.2936 34.9956 23.4156 35.0444 23.536C34.95 23.8971 34.8996 24.283 34.8996 24.6754C34.8996 24.9557 34.9273 25.2344 34.9761 25.5032C34.3465 25.8428 33.8146 26.3886 33.5608 27.0135L33.0159 28.3409C32.8565 28.3145 32.6889 28.2684 32.5181 28.1909C31.4347 27.6978 31.1403 26.3968 31.1321 25.7027C31.1289 25.1091 31.329 24.7364 32.0626 23.3579L32.2481 23.0084C32.7654 22.0421 33.1981 21.2094 33.5136 20.5977C34.0309 21.4254 34.4913 22.2845 34.8817 23.1617Z" fill="#265FE5"/>
<defs>
<filter id="filter0_d_123_490" x="0" y="0" width="85" height="85" filterUnits="userSpaceOnUse" color-interpolation-filters="sRGB">
<feFlood flood-opacity="0" result="BackgroundImageFix"/>
<feColorMatrix in="SourceAlpha" type="matrix" values="0 0 0 0 0 0 0 0 0 0 0 0 0 0 0 0 0 0 127 0" result="hardAlpha"/>
<feOffset dy="12"/>
<feGaussianBlur stdDeviation="7"/>
<feComposite in2="hardAlpha" operator="out"/>
<feColorMatrix type="matrix" values="0 0 0 0 0.14902 0 0 0 0 0.372549 0 0 0 0 0.898039 0 0 0 0.1 0"/>
<feBlend mode="normal" in2="BackgroundImageFix" result="effect1_dropShadow_123_490"/>
<feBlend mode="normal" in="SourceGraphic" in2="effect1_dropShadow_123_490" result="shape"/>
</filter>
</defs>
</svg>
