<svg width="85" height="85" viewBox="0 0 85 85" fill="none" xmlns="http://www.w3.org/2000/svg">
<g filter="url(#filter0_d_123_479)">
<rect x="14" y="2" width="57" height="57" rx="14" fill="white"/>
</g>
<path d="M55.1322 31.3054V32.0689C55.1322 32.6727 54.6399 33.1631 54.0367 33.1631H53.471L53.841 34.0614C54.1834 34.8973 54.4654 36.3123 54.4654 37.2107V43.7116C54.4654 44.3138 53.9731 44.8058 53.3666 44.8058H51.5847C50.9783 44.8058 50.4876 44.3138 50.4876 43.7116V41.8194H34.6251V43.7116C34.6251 44.3138 34.1344 44.8058 33.5279 44.8058H31.7493C31.1428 44.8058 30.6505 44.3138 30.6505 43.7116V37.2107C30.6505 36.3074 30.9293 34.8973 31.27 34.0614L31.6417 33.1631H31.0972C30.4907 33.1631 30 32.6727 30 32.0689V31.3054C30 30.7197 30.476 30.3462 31.058 30.5041L32.5644 30.9171L33.0828 29.6617C33.4594 29.8197 33.867 29.925 34.2876 29.9743L33.1432 32.63C32.9997 32.9607 33.0144 33.2914 33.1774 33.5481C33.3535 33.8179 33.6746 33.9693 34.0626 33.9693H51.05C51.438 33.9693 51.7624 33.8179 51.9353 33.5481C52.1015 33.2914 52.1162 32.9607 51.9728 32.63L50.9066 30.1586C51.0989 30.1866 51.2962 30.2014 51.4951 30.2014C51.7445 30.2014 51.9874 30.18 52.2254 30.1323L52.5515 30.9221L54.0742 30.5041C54.6562 30.3412 55.1322 30.7164 55.1322 31.3054ZM52.3722 38.9515V37.0988C52.3722 36.6496 52.0086 36.286 51.5603 36.286H47.6949C47.245 36.286 46.8814 36.6496 46.8814 37.0988V38.9515C46.8814 39.4024 47.245 39.7693 47.6949 39.7693H51.5603C52.0086 39.7693 52.3722 39.4024 52.3722 38.9515ZM38.197 38.9515V37.0988C38.197 36.6496 37.8318 36.286 37.3851 36.286H33.5181C33.0714 36.286 32.7046 36.6496 32.7046 37.0988V38.9515C32.7046 39.4024 33.0714 39.7693 33.5181 39.7693H37.3851C37.8318 39.7693 38.197 39.4024 38.197 38.9515Z" fill="#265FE5"/>
<path d="M52.6363 22.8002C54.0057 23.279 54.9888 24.592 54.9888 26.1353C54.9888 27.7116 53.9617 29.0493 52.5417 29.5001L51.6092 27.2213C51.513 26.9909 51.381 26.7721 51.2131 26.5714C51.4478 26.0449 51.5783 25.4657 51.5783 24.8536C51.5783 24.7351 51.5734 24.6183 51.5603 24.5015C52.0201 24.0128 52.3869 23.4369 52.6363 22.8002Z" fill="#265FE5"/>
<path d="M52.3787 22.7215C52.4651 22.7429 52.5515 22.7675 52.6363 22.8005C52.3868 23.4372 52.02 24.0131 51.5603 24.5018C51.5538 24.385 51.5375 24.2681 51.5195 24.153C51.8798 23.7317 52.1733 23.2464 52.3787 22.7215Z" fill="#265FE5"/>
<path d="M52.4765 20.8243C52.4765 21.2817 52.4129 21.7276 52.2939 22.1438C52.0347 22.0945 51.7706 22.0649 51.4967 22.0649C51.1967 22.0649 50.9 22.0994 50.618 22.162C49.8485 21.2356 48.6942 20.6416 47.4063 20.6416C46.8781 20.6416 46.3727 20.742 45.9097 20.9213C45.5984 19.6922 44.8892 18.6194 43.9273 17.8642C44.8044 16.7305 46.169 16 47.6998 16C50.3343 16 52.4765 18.167 52.4765 20.8243Z" fill="#265FE5"/>
<path d="M52.1228 29.877L52.2255 30.1321C51.9875 30.1798 51.7446 30.2012 51.4951 30.2012C51.2962 30.2012 51.099 30.1864 50.9066 30.1584L50.7794 29.8622C51.0093 29.905 51.2506 29.9313 51.4951 29.9313C51.7103 29.9313 51.919 29.9116 52.1228 29.877Z" fill="#265FE5"/>
<path d="M52.1162 22.6637C52.2042 22.6785 52.2939 22.6966 52.3787 22.7213C52.1733 23.2478 51.8815 23.7332 51.5212 24.1528C51.5 24.0393 51.4788 23.9224 51.4494 23.8155C51.7201 23.465 51.945 23.0817 52.1162 22.6637Z" fill="#265FE5"/>
<path d="M52.0168 29.622L52.1227 29.877C51.9189 29.9116 51.7103 29.9313 51.4967 29.9313C51.2505 29.9313 51.0093 29.905 50.7794 29.8622L50.6473 29.5562C50.918 29.6253 51.2033 29.6615 51.4967 29.6615C51.6744 29.6615 51.844 29.6467 52.0168 29.622Z" fill="#265FE5"/>
<path d="M51.1137 27.4305L52.0152 29.6222C51.844 29.6468 51.6728 29.6617 51.4952 29.6617C51.2017 29.6617 50.9164 29.6255 50.6474 29.558L50.0295 28.1249C50.3817 27.8369 50.6882 27.4881 50.9311 27.0965C51.0061 27.2035 51.0664 27.317 51.1137 27.4305Z" fill="#265FE5"/>
<path d="M51.4951 22.6064C51.7054 22.6064 51.9141 22.6262 52.1146 22.664C51.945 23.082 51.7201 23.4653 51.4478 23.8158C51.3418 23.3962 51.1772 23.003 50.9571 22.6476C51.1315 22.6212 51.3125 22.6064 51.4951 22.6064Z" fill="#265FE5"/>
<path d="M51.0434 24.8537C51.0434 24.9014 51.0434 24.9459 51.0402 24.9903C50.7304 25.247 50.3864 25.4691 50.0229 25.6501C49.9104 25.5958 49.7947 25.553 49.6773 25.5135C50.181 25.2963 50.6375 25.0034 51.0402 24.6464C51.0402 24.7155 51.0434 24.7863 51.0434 24.8537Z" fill="#265FE5"/>
<path d="M50.9995 24.309C51.019 24.4192 51.0321 24.5311 51.0402 24.6463C50.6375 25.0033 50.1811 25.2979 49.6773 25.5134C49.5208 25.4624 49.3561 25.4229 49.1964 25.4031C49.8811 25.1794 50.4941 24.7977 50.9995 24.309Z" fill="#265FE5"/>
<path d="M50.7598 26.8691C50.825 26.9415 50.8821 27.0172 50.931 27.0962C50.6881 27.4878 50.3816 27.8366 50.0295 28.1246L49.9365 27.9123C49.9284 27.8975 49.9251 27.8876 49.9153 27.8728C50.2495 27.5882 50.5348 27.2509 50.7598 26.8691Z" fill="#265FE5"/>
<path d="M51.0402 24.9902C51.0255 25.3982 50.944 25.7898 50.8087 26.1534C50.5739 25.9478 50.3049 25.7799 50.0229 25.65C50.3864 25.469 50.7304 25.2469 51.0402 24.9902Z" fill="#265FE5"/>
<path d="M50.569 26.6636C50.6375 26.7327 50.7027 26.7969 50.7597 26.8693C50.5364 27.251 50.2495 27.5883 49.9153 27.873C49.881 27.7907 49.8337 27.7117 49.7799 27.636C50.0946 27.358 50.3619 27.0305 50.569 26.6636Z" fill="#265FE5"/>
<path d="M50.4076 22.7824C50.7108 23.2267 50.9179 23.745 50.9994 24.306C50.494 24.7964 49.881 25.1781 49.1963 25.4019C49.0822 25.3821 48.9648 25.3755 48.8507 25.3755H48.0812C48.3486 24.153 49.242 23.1674 50.4076 22.7824Z" fill="#265FE5"/>
<path d="M49.2387 25.9597C49.7164 26.0535 50.1989 26.3167 50.569 26.6639C50.362 27.0325 50.0946 27.3582 49.78 27.6363C49.436 27.1427 48.7888 26.7906 48.1872 26.7906H48.06C48.0225 26.5931 48.0013 26.3891 47.9981 26.1802C48.4252 26.1571 48.8426 26.0831 49.2387 25.9597Z" fill="#265FE5"/>
<path d="M50.2365 22.5519C50.2969 22.6243 50.3556 22.7032 50.4077 22.7822C49.2421 23.1672 48.3487 24.1528 48.0797 25.3753H47.8058C48.0699 24.0623 49.0073 22.9928 50.2365 22.5519Z" fill="#265FE5"/>
<path d="M50.0524 22.3363C50.1159 22.4054 50.1811 22.4762 50.2366 22.5519C49.0073 22.9961 48.0699 24.0623 47.8058 25.3753H47.5352C47.7944 23.98 48.7644 22.8316 50.0524 22.3363Z" fill="#265FE5"/>
<path d="M47.4064 21.1813C48.4481 21.1813 49.3888 21.6272 50.0523 22.3363C48.7644 22.8316 47.7944 23.9801 47.5351 25.3753H46.1233C45.8674 25.2898 45.6245 25.1795 45.3897 25.0479C45.8299 24.24 46.0842 23.312 46.0842 22.3215C46.0842 22.0303 46.0614 21.7424 46.0206 21.461C46.4461 21.2816 46.9189 21.1813 47.4064 21.1813Z" fill="#265FE5"/>
<path d="M48.8491 25.9151C48.9779 25.9151 49.1067 25.9315 49.2371 25.9595C48.8426 26.0813 48.4252 26.157 47.9981 26.1784V26.1339C47.9981 26.0599 48.0013 25.9875 48.0046 25.9151H48.8491Z" fill="#265FE5"/>
<path d="M48.0584 26.7905H47.7862C47.7519 26.5947 47.7324 26.3956 47.7291 26.1899C47.8188 26.1899 47.9084 26.1866 47.9981 26.1784C48.0014 26.3857 48.0225 26.5914 48.0584 26.7905Z" fill="#265FE5"/>
<path d="M47.8302 25.9151H48.0046C48.0014 25.9875 47.9981 26.0599 47.9981 26.1339V26.1784C47.9084 26.1849 47.8188 26.1899 47.7291 26.1899V26.1339C47.7291 26.0632 47.7324 25.9908 47.7324 25.9184C47.7666 25.9184 47.7976 25.9184 47.8302 25.9151Z" fill="#265FE5"/>
<path d="M47.8302 25.9151C47.7976 25.9184 47.7666 25.9184 47.7324 25.9184L47.7373 25.9151H47.8302Z" fill="#265FE5"/>
<path d="M47.7878 26.7904H47.5172C47.4846 26.5913 47.4666 26.3922 47.4634 26.1816C47.5416 26.1898 47.6199 26.1898 47.6998 26.1898H47.7307C47.734 26.3955 47.7536 26.5946 47.7878 26.7904Z" fill="#265FE5"/>
<path d="M47.7633 25.6468C47.7405 25.6501 47.7193 25.6501 47.6997 25.6501C47.6606 25.6501 47.6166 25.6501 47.5775 25.6468H47.7633Z" fill="#265FE5"/>
<path d="M47.7373 25.9151L47.734 25.9184H47.6981C47.6557 25.9184 47.6134 25.9184 47.5693 25.9151H47.7373Z" fill="#265FE5"/>
<path d="M47.734 25.9184C47.734 25.9908 47.7307 26.0632 47.7307 26.1339V26.1899H47.6998C47.6215 26.1899 47.5416 26.1899 47.4634 26.1817V26.1339C47.4634 26.0582 47.4666 25.9875 47.4666 25.9151H47.571C47.6134 25.9184 47.6558 25.9184 47.6998 25.9184H47.734Z" fill="#265FE5"/>
<path d="M47.5694 25.9152H47.4667V25.9119C47.5009 25.9152 47.5352 25.9152 47.5694 25.9152Z" fill="#265FE5"/>
<path d="M47.5172 26.7904H44.3154C44.2648 26.718 44.2224 26.6391 44.1833 26.5634C44.4083 26.3643 44.6153 26.1504 44.8045 25.9151H44.8077H46.0272C46.4836 26.0698 46.9629 26.1603 47.4634 26.1817C47.4667 26.3923 47.4846 26.5913 47.5172 26.7904Z" fill="#265FE5"/>
<path d="M47.4667 25.9151C47.4667 25.9875 47.4635 26.0599 47.4635 26.1339V26.1817C46.963 26.1603 46.482 26.0698 46.0256 25.9151H47.4667Z" fill="#265FE5"/>
<path d="M46.1217 25.3753H45.4272C45.3653 25.3474 45.3099 25.3161 45.2528 25.2816C45.3001 25.2059 45.3457 25.1269 45.3881 25.0479C45.6229 25.1779 45.8658 25.2898 46.1217 25.3753Z" fill="#265FE5"/>
<path d="M46.019 21.461C46.0614 21.7423 46.0826 22.0303 46.0826 22.3215C46.0826 23.312 45.8299 24.24 45.3881 25.0495C45.3099 25.0067 45.2349 24.959 45.1599 24.9113C45.5772 24.1413 45.8152 23.261 45.8152 22.3215C45.8152 22.0697 45.7973 21.8213 45.7647 21.5811C45.8479 21.5333 45.9343 21.4939 46.019 21.461Z" fill="#265FE5"/>
<path d="M45.7646 21.581C45.7972 21.8212 45.8152 22.0697 45.8152 22.3231C45.8152 23.2609 45.5771 24.1429 45.1598 24.9129C45.0815 24.8635 45.0065 24.8125 44.9348 24.7615C45.3277 24.0343 45.5494 23.2033 45.5494 22.3231C45.5494 22.1174 45.538 21.915 45.5119 21.7176C45.5934 21.6666 45.6766 21.6205 45.7646 21.581Z" fill="#265FE5"/>
<path d="M45.5135 21.7179C45.5396 21.9153 45.5494 22.1177 45.5494 22.3217C45.5494 23.2036 45.3293 24.0346 44.9364 24.7602C44.5549 24.4854 44.2158 24.1563 43.924 23.7861C44.1849 22.919 44.7571 22.1852 45.5135 21.7179Z" fill="#265FE5"/>
<path d="M45.4272 25.3758H45.1924C45.2136 25.3477 45.2348 25.3163 45.2527 25.2816C45.3098 25.3163 45.3669 25.3477 45.4272 25.3758Z" fill="#265FE5"/>
<path d="M45.3897 25.0494C45.3457 25.1284 45.3 25.2074 45.2544 25.2831C45.1761 25.2403 45.1011 25.1942 45.0262 25.1465C45.0734 25.0708 45.1174 24.9918 45.1615 24.9129C45.2365 24.9589 45.3115 25.0066 45.3897 25.0494Z" fill="#265FE5"/>
<path d="M45.2528 25.2831C45.2349 25.316 45.212 25.3489 45.1925 25.3768H44.8892C44.886 25.3768 44.8811 25.3719 44.8778 25.3686C44.9316 25.2979 44.9773 25.2223 45.0246 25.1466C45.0996 25.1927 45.1745 25.2403 45.2528 25.2831Z" fill="#265FE5"/>
<path d="M45.1614 24.9114C45.1174 24.9904 45.0734 25.0694 45.0261 25.1451C44.9478 25.099 44.8761 25.048 44.8011 24.9937C44.8484 24.918 44.8924 24.8407 44.9364 24.7601C45.0082 24.8111 45.0832 24.8621 45.1614 24.9114Z" fill="#265FE5"/>
<path d="M45.0245 25.1452C44.9772 25.2209 44.9316 25.2966 44.8778 25.369C44.8028 25.3229 44.7245 25.2719 44.6528 25.2209C44.7033 25.1452 44.7522 25.0695 44.7995 24.9938C44.8745 25.0481 44.9462 25.0991 45.0245 25.1452Z" fill="#265FE5"/>
<path d="M44.8892 25.3756H44.8745C44.8794 25.3756 44.8794 25.3723 44.8794 25.369C44.8827 25.3723 44.886 25.3756 44.8892 25.3756Z" fill="#265FE5"/>
<path d="M44.8793 25.3682C44.8793 25.3715 44.8793 25.3748 44.8761 25.3748H44.5451C44.5826 25.3256 44.6185 25.2748 44.6544 25.2207C44.7261 25.2715 44.8043 25.3223 44.8793 25.3682Z" fill="#265FE5"/>
<path d="M44.9364 24.7601C44.8924 24.8407 44.8451 24.918 44.8011 24.9937C44.4441 24.742 44.1197 24.4442 43.8409 24.1102C43.8637 23.9999 43.8914 23.893 43.9224 23.786C44.2158 24.1562 44.5549 24.4837 44.9364 24.7601Z" fill="#265FE5"/>
<path d="M44.4572 25.9151H44.8045C44.6153 26.1504 44.4083 26.3643 44.1833 26.5634C44.1393 26.4811 44.1018 26.4021 44.0659 26.3133C44.2013 26.1899 44.3333 26.055 44.4572 25.9151Z" fill="#265FE5"/>
<path d="M44.7995 24.9938C44.7523 25.0695 44.7034 25.1452 44.6528 25.2209C44.3366 24.9938 44.048 24.7388 43.7855 24.4508C43.8018 24.3357 43.8198 24.2205 43.8393 24.1102C44.1181 24.4443 44.4425 24.7421 44.7995 24.9938Z" fill="#265FE5"/>
<path d="M44.6545 25.2209C44.6186 25.2752 44.5828 25.3262 44.5453 25.3756H43.8067C43.779 25.2061 43.766 25.0317 43.766 24.854C43.766 24.7174 43.7725 24.5808 43.7888 24.4509C44.048 24.7388 44.3382 24.9938 44.6545 25.2209Z" fill="#265FE5"/>
<path d="M45.4142 21.1518C44.5827 21.6092 43.9225 22.343 43.554 23.2282C43.1497 22.5191 42.9182 21.6997 42.9182 20.8243C42.9182 19.8996 43.1758 19.0407 43.6209 18.3069C44.5045 19.0128 45.1517 20.0082 45.4142 21.1518Z" fill="#265FE5"/>
<path d="M44.0888 25.9151H44.4605C44.335 26.055 44.2013 26.1899 44.066 26.3133C44.0285 26.2244 43.991 26.1306 43.96 26.0385C44.0024 26.0007 44.0448 25.9595 44.0888 25.9151Z" fill="#265FE5"/>
<path d="M44.3154 26.7905H44.0024C43.9926 26.7757 43.9828 26.7576 43.9763 26.7428C44.0481 26.6853 44.1149 26.6261 44.1834 26.5636C44.2209 26.6392 44.2649 26.7181 44.3154 26.7905Z" fill="#265FE5"/>
<path d="M44.0659 26.3166C44.1017 26.4022 44.1409 26.4828 44.1849 26.5651C44.1164 26.626 44.0479 26.6852 43.9778 26.7444C43.9338 26.6605 43.8914 26.5782 43.8572 26.496C43.9273 26.4384 43.9974 26.3759 44.0659 26.3166Z" fill="#265FE5"/>
<path d="M44.0888 25.9151C44.0447 25.9594 44.0024 26.0003 43.96 26.038C43.9453 25.9971 43.9339 25.9544 43.9192 25.9151H44.0888Z" fill="#265FE5"/>
<path d="M43.9762 26.7427C43.9827 26.7576 43.9942 26.7758 44.0023 26.7906H43.911C43.9338 26.7758 43.955 26.7576 43.9762 26.7427Z" fill="#265FE5"/>
<path d="M43.9583 26.0383C43.9892 26.1321 44.0267 26.2243 44.0642 26.3164C43.9974 26.3756 43.9273 26.4365 43.8539 26.4957C43.8148 26.4085 43.7757 26.323 43.748 26.2325C43.8197 26.1716 43.8898 26.1074 43.9583 26.0383Z" fill="#265FE5"/>
<path d="M43.9763 26.7429C43.9551 26.7577 43.9339 26.7758 43.911 26.7906H43.6975C43.6763 26.7495 43.66 26.7083 43.6388 26.6672C43.7138 26.6129 43.7823 26.557 43.854 26.4944C43.8915 26.5784 43.9339 26.6606 43.9763 26.7429Z" fill="#265FE5"/>
<path d="M43.9192 25.9151C43.9339 25.9546 43.9453 25.9974 43.96 26.0385C43.8915 26.106 43.8198 26.1718 43.748 26.2327C43.7073 26.1274 43.673 26.0237 43.6453 25.9151H43.9192Z" fill="#265FE5"/>
<path d="M43.7479 26.2325C43.7756 26.323 43.8164 26.4102 43.8539 26.4958C43.7822 26.5583 43.7137 26.6159 43.6387 26.6685C43.5979 26.583 43.5605 26.4958 43.5262 26.4102C43.6012 26.3559 43.6762 26.2934 43.7479 26.2325Z" fill="#265FE5"/>
<path d="M43.7481 26.2328C43.6764 26.2937 43.6014 26.3562 43.5264 26.4105C43.4628 26.2493 43.4106 26.0864 43.3666 25.9169H43.6454C43.6731 26.0255 43.7057 26.1292 43.7481 26.2328Z" fill="#265FE5"/>
<path d="M43.6975 26.7897H43.4692C43.5263 26.7504 43.5801 26.711 43.6388 26.6668C43.6583 26.7078 43.6763 26.7504 43.6975 26.7897Z" fill="#265FE5"/>
<path d="M43.6388 26.6668C43.5818 26.7112 43.528 26.7491 43.4693 26.7902H42.9574C43.1563 26.6734 43.3454 26.5484 43.528 26.4085C43.5606 26.4941 43.5981 26.5812 43.6388 26.6668Z" fill="#265FE5"/>
<path d="M43.4073 18.1441C43.4823 18.1951 43.554 18.2494 43.6208 18.307C43.1758 19.0408 42.9182 19.8997 42.9182 20.8244C42.9182 21.6998 43.1497 22.5192 43.554 23.2283C43.51 23.3369 43.4725 23.4406 43.4382 23.5525C42.9394 22.7643 42.6508 21.8281 42.6508 20.8244C42.6508 19.8421 42.928 18.9207 43.4073 18.1441Z" fill="#265FE5"/>
<path d="M43.3666 25.9151C43.4106 26.0862 43.4628 26.2475 43.5264 26.4087C43.3454 26.5502 43.1563 26.6736 42.9574 26.7904H39.3138C39.41 26.5091 39.4801 26.2179 39.5241 25.9151H43.3666Z" fill="#265FE5"/>
<path d="M43.4383 23.5524C43.3976 23.6626 43.3666 23.7795 43.3421 23.893C42.7357 23.0226 42.3835 21.9646 42.3835 20.8244C42.3835 19.7861 42.6754 18.817 43.1856 17.9927C43.2606 18.0404 43.3356 18.0914 43.4074 18.144C42.9281 18.9207 42.6509 19.8421 42.6509 20.8244C42.6509 21.828 42.9395 22.7626 43.4383 23.5524Z" fill="#265FE5"/>
<path d="M43.2639 25.3754H39.5664C39.5697 25.3326 39.5697 25.2899 39.5697 25.2471C39.5697 22.9106 37.897 20.9642 35.6978 20.5627C36.4118 18.5965 38.2785 17.1946 40.4679 17.1946C41.4673 17.1946 42.3998 17.4858 43.1856 17.9926C42.6753 18.8169 42.3819 19.7861 42.3819 20.8243C42.3819 21.9646 42.7357 23.0242 43.3421 23.8929C43.2704 24.2023 43.2313 24.5231 43.2313 24.8538C43.2313 25.0315 43.241 25.2059 43.2639 25.3754Z" fill="#265FE5"/>
<path d="M39.2566 25.9151H39.524C39.4816 26.2179 39.4099 26.5091 39.3137 26.7904H39.0316C39.136 26.5124 39.211 26.2179 39.2566 25.9151Z" fill="#265FE5"/>
<path d="M38.9811 25.9151H39.2566C39.211 26.2179 39.136 26.5124 39.0317 26.7904H38.7431C38.854 26.5124 38.9355 26.2179 38.9811 25.9151Z" fill="#265FE5"/>
<path d="M39.0349 25.2472C39.0349 25.29 39.0349 25.3328 39.0317 25.3756H36.3939C35.763 24.52 35.388 23.462 35.388 22.3218C35.388 21.894 35.4418 21.481 35.538 21.0844C37.5204 21.4151 39.0349 23.156 39.0349 25.2472Z" fill="#265FE5"/>
<path d="M36.8503 25.9151H38.9843C38.937 26.2179 38.8555 26.5124 38.743 26.7904H37.9801C37.5643 26.5535 37.1829 26.2573 36.8503 25.9151Z" fill="#265FE5"/>
<path d="M38.4904 27.3302C38.4904 27.3336 38.4871 27.3336 38.4871 27.3336C38.4839 27.3336 38.4806 27.3336 38.4757 27.3302H38.4904Z" fill="#265FE5"/>
<path d="M37.9802 26.7904H37.4683C37.1047 26.5387 36.7738 26.2475 36.4803 25.9151H36.8504C37.183 26.2573 37.5645 26.5535 37.9802 26.7904Z" fill="#265FE5"/>
<path d="M37.4682 26.7904H37.0264C36.6988 26.5387 36.402 26.2442 36.1379 25.9217C36.1803 25.9151 36.2195 25.9151 36.2635 25.9151H36.4803C36.7737 26.2475 37.1047 26.5387 37.4682 26.7904Z" fill="#265FE5"/>
<path d="M37.0248 26.7902H36.9287C36.2146 26.7902 35.4484 27.2822 35.1745 27.9124L34.511 29.4558C34.0789 29.4228 33.6697 29.3241 33.285 29.1645L33.9974 27.4303C34.3219 26.6504 35.2772 25.9807 36.1363 25.9215C36.4004 26.244 36.6955 26.5385 37.0248 26.7902Z" fill="#265FE5"/>
<path d="M36.3955 25.3755H36.2634C36.1982 25.3755 36.1346 25.3788 36.0694 25.3854C35.4711 24.5166 35.1222 23.4619 35.1222 22.3217C35.1222 21.8824 35.1744 21.4546 35.2722 21.0449C35.3602 21.0514 35.4499 21.0646 35.5379 21.0843C35.4434 21.4792 35.388 21.8939 35.388 22.3217C35.388 23.4619 35.7629 24.5199 36.3955 25.3755Z" fill="#265FE5"/>
<path d="M36.0695 25.3886C35.9701 25.3919 35.8739 25.4067 35.7728 25.4264C35.1941 24.5346 34.8533 23.4651 34.8533 22.3232C34.8533 21.8757 34.9039 21.4446 35.0033 21.0267C35.093 21.0316 35.1826 21.0349 35.2723 21.0448C35.1745 21.4545 35.1223 21.8839 35.1223 22.3232C35.1223 23.4618 35.4712 24.5165 36.0695 25.3886Z" fill="#265FE5"/>
<path d="M35.2723 17.841C35.3407 18.147 35.2821 18.4597 35.1158 18.7229C34.7685 19.2659 34.0463 19.4255 33.5083 19.075C32.9703 18.7262 32.8106 18.0006 33.1611 17.4527C33.3828 17.1071 33.7561 16.9163 34.1376 16.9163C34.3561 16.9163 34.5745 16.9772 34.7653 17.1039C35.0261 17.2733 35.2087 17.535 35.2723 17.841Z" fill="#265FE5"/>
<path d="M34.85 21.0235C34.9005 21.0235 34.9543 21.0235 35.0032 21.0268C34.9038 21.4431 34.8549 21.8758 34.8549 22.3217C34.8549 23.4652 35.1923 24.5347 35.7727 25.4265C34.8125 25.6157 33.8702 26.3348 33.5066 27.2216L32.804 28.9279C31.5291 28.2072 30.6651 26.8267 30.6651 25.2472C30.6651 22.919 32.5399 21.0235 34.85 21.0235Z" fill="#265FE5"/>
<path d="M34.5125 29.4566L34.3984 29.7203C33.9745 29.6774 33.5637 29.5719 33.1822 29.4137L33.2866 29.1665C33.6713 29.3247 34.0805 29.4253 34.5125 29.4566Z" fill="#265FE5"/>
<path d="M34.3968 29.7195L34.2876 29.975C33.867 29.9256 33.4594 29.8201 33.0812 29.6618L33.1823 29.4129C33.5621 29.5712 33.9729 29.675 34.3968 29.7195Z" fill="#265FE5"/>
<defs>
<filter id="filter0_d_123_479" x="0" y="0" width="85" height="85" filterUnits="userSpaceOnUse" color-interpolation-filters="sRGB">
<feFlood flood-opacity="0" result="BackgroundImageFix"/>
<feColorMatrix in="SourceAlpha" type="matrix" values="0 0 0 0 0 0 0 0 0 0 0 0 0 0 0 0 0 0 127 0" result="hardAlpha"/>
<feOffset dy="12"/>
<feGaussianBlur stdDeviation="7"/>
<feComposite in2="hardAlpha" operator="out"/>
<feColorMatrix type="matrix" values="0 0 0 0 0.14902 0 0 0 0 0.372549 0 0 0 0 0.898039 0 0 0 0.1 0"/>
<feBlend mode="normal" in2="BackgroundImageFix" result="effect1_dropShadow_123_479"/>
<feBlend mode="normal" in="SourceGraphic" in2="effect1_dropShadow_123_479" result="shape"/>
</filter>
</defs>
</svg>
