<svg width="85" height="85" viewBox="0 0 85 85" fill="none" xmlns="http://www.w3.org/2000/svg">
<g filter="url(#filter0_d_123_534)">
<rect x="14" y="2" width="57" height="57" rx="14" fill="white"/>
</g>
<path d="M30.4203 30.1562C30.4654 27.9302 30.4879 26.8172 31.2274 25.8644C31.3623 25.6905 31.5603 25.4838 31.7263 25.3437C32.6356 24.576 33.8362 24.576 36.2373 24.576C37.0951 24.576 37.524 24.576 37.9329 24.4638C38.0179 24.4405 38.1019 24.4136 38.1849 24.3832C38.5842 24.2369 38.9423 23.9851 39.6586 23.4815C42.4845 21.4947 43.8974 20.5013 45.0834 20.9329C45.3108 21.0156 45.5308 21.1351 45.7274 21.2824C46.7526 22.0506 46.8305 23.8381 46.9863 27.4131C47.044 28.7369 47.0833 29.8698 47.0833 30.5C47.0833 31.1302 47.044 32.2631 46.9863 33.5868C46.8305 37.1618 46.7526 38.9493 45.7274 39.7176C45.5308 39.8649 45.3108 39.9843 45.0834 40.0671C43.8974 40.4986 42.4845 39.5052 39.6586 37.5184C38.9423 37.0149 38.5842 36.7631 38.1849 36.6168C38.1019 36.5864 38.0179 36.5595 37.9329 36.5362C37.524 36.4239 37.0951 36.4239 36.2373 36.4239C33.8362 36.4239 32.6356 36.4239 31.7263 35.6563C31.5603 35.5161 31.3623 35.3095 31.2274 35.1356C30.4879 34.1828 30.4654 33.0698 30.4203 30.8438C30.4179 30.7269 30.4167 30.6121 30.4167 30.5C30.4167 30.3879 30.4179 30.2731 30.4203 30.1562Z" fill="#265FE5"/>
<path fill-rule="evenodd" clip-rule="evenodd" d="M51.5498 22.7089C51.9034 22.3947 52.4289 22.4456 52.7235 22.8226L52.0833 23.3915C52.7235 22.8226 52.7232 22.8223 52.7235 22.8226L52.7248 22.8243L52.7262 22.8261L52.7295 22.8304L52.7378 22.8414C52.7442 22.8498 52.752 22.8604 52.7613 22.8731C52.7798 22.8987 52.804 22.9331 52.833 22.9764C52.8911 23.063 52.9684 23.1855 53.0583 23.3453C53.2382 23.665 53.468 24.1332 53.6944 24.7609C54.148 26.0184 54.5833 27.9037 54.5833 30.5003C54.5833 33.0968 54.148 34.9822 53.6944 36.2397C53.468 36.8674 53.2382 37.3355 53.0583 37.6552C52.9684 37.815 52.8911 37.9375 52.833 38.0241C52.804 38.0675 52.7798 38.1018 52.7613 38.1274C52.752 38.1402 52.7442 38.1507 52.7378 38.1592L52.7295 38.1701L52.7262 38.1744L52.7248 38.1762C52.7245 38.1766 52.7235 38.1779 52.0833 37.609L52.7235 38.1779C52.4289 38.5549 51.9034 38.6058 51.5498 38.2916C51.198 37.979 51.149 37.4225 51.4389 37.0456C51.4396 37.0447 51.4409 37.0429 51.4428 37.0403C51.4487 37.0322 51.4603 37.0159 51.4768 36.9912C51.5099 36.9418 51.5628 36.8588 51.6292 36.7409C51.7618 36.5052 51.9486 36.1292 52.1389 35.6017C52.5186 34.5489 52.9167 32.8798 52.9167 30.5003C52.9167 28.1207 52.5186 26.4517 52.1389 25.3988C51.9486 24.8713 51.7618 24.4954 51.6292 24.2597C51.5628 24.1417 51.5099 24.0588 51.4768 24.0094C51.4603 23.9846 51.4487 23.9683 51.4428 23.9602C51.4409 23.9576 51.4396 23.9558 51.4389 23.9549C51.4389 23.9549 51.4389 23.9549 51.4389 23.9549" fill="#265FE5"/>
<path fill-rule="evenodd" clip-rule="evenodd" d="M49.4565 26.1693C49.8589 25.9309 50.3662 26.0855 50.5897 26.5145L49.8612 26.946C50.5897 26.5145 50.5895 26.5141 50.5897 26.5145L50.5905 26.516L50.5914 26.5177L50.5932 26.5213L50.5975 26.5297L50.6082 26.5515C50.6163 26.5681 50.6261 26.5892 50.6375 26.6147C50.6603 26.6656 50.6891 26.7344 50.7218 26.8215C50.7872 26.9959 50.8678 27.2434 50.9462 27.5695C51.1032 28.2222 51.2501 29.1851 51.2501 30.5004C51.2501 31.8157 51.1032 32.7786 50.9462 33.4313C50.8678 33.7574 50.7872 34.0049 50.7218 34.1793C50.6891 34.2664 50.6603 34.3352 50.6375 34.3861C50.6261 34.4116 50.6163 34.4327 50.6082 34.4493L50.5975 34.4711L50.5932 34.4795L50.5914 34.4831L50.5905 34.4848C50.5903 34.4851 50.5897 34.4863 49.8612 34.0548L50.5897 34.4863C50.3662 34.9153 49.8589 35.0699 49.4565 34.8315C49.0576 34.5952 48.9117 34.0614 49.1272 33.6342L49.1327 33.6221C49.1403 33.605 49.1549 33.571 49.1743 33.5193C49.2131 33.4159 49.2713 33.2414 49.3318 32.9899C49.4526 32.4875 49.5835 31.6732 49.5835 30.5004C49.5835 29.3276 49.4526 28.5133 49.3318 28.0109C49.2713 27.7594 49.2131 27.5849 49.1743 27.4815C49.1549 27.4298 49.1403 27.3958 49.1327 27.3787L49.1272 27.3666C48.9117 26.9394 49.0576 26.4056 49.4565 26.1693Z" fill="#265FE5"/>
<defs>
<filter id="filter0_d_123_534" x="0" y="0" width="85" height="85" filterUnits="userSpaceOnUse" color-interpolation-filters="sRGB">
<feFlood flood-opacity="0" result="BackgroundImageFix"/>
<feColorMatrix in="SourceAlpha" type="matrix" values="0 0 0 0 0 0 0 0 0 0 0 0 0 0 0 0 0 0 127 0" result="hardAlpha"/>
<feOffset dy="12"/>
<feGaussianBlur stdDeviation="7"/>
<feComposite in2="hardAlpha" operator="out"/>
<feColorMatrix type="matrix" values="0 0 0 0 0.14902 0 0 0 0 0.372549 0 0 0 0 0.898039 0 0 0 0.1 0"/>
<feBlend mode="normal" in2="BackgroundImageFix" result="effect1_dropShadow_123_534"/>
<feBlend mode="normal" in="SourceGraphic" in2="effect1_dropShadow_123_534" result="shape"/>
</filter>
</defs>
</svg>
