<svg width="85" height="85" viewBox="0 0 85 85" fill="none" xmlns="http://www.w3.org/2000/svg">
<g filter="url(#filter0_d_123_512)">
<rect x="14" y="2" width="57" height="57" rx="14" fill="white"/>
</g>
<path d="M57 30.5231V31.3768C57 32.0522 56.4528 32.6015 55.7776 32.6015H55.1504L55.5626 33.6082C55.9446 34.5411 56.2538 36.1224 56.2538 37.131V44.4053C56.2538 45.0806 55.7065 45.6281 55.0313 45.6281H53.0449C52.3751 45.6281 51.8261 45.0806 51.8261 44.4053V42.2873H34.1508V44.4053C34.1508 45.0806 33.6036 45.6281 32.932 45.6281H30.9473C30.2704 45.6281 29.7231 45.0806 29.7231 44.4053V37.131C29.7231 36.1188 30.0376 34.5411 30.4179 33.6082L30.8318 32.6015H30.2206C29.549 32.6015 29 32.0522 29 31.3768V30.5231C29 29.8657 29.533 29.4443 30.1798 29.6244L31.8553 30.0891L33.4526 26.1881C33.5396 25.9702 33.6711 25.7649 33.8363 25.5703C33.9803 25.6118 34.1206 25.6676 34.2574 25.736C34.5257 25.8729 34.7265 26.0422 35.0108 26.3286C34.9095 26.4529 34.826 26.5861 34.7674 26.7266L32.4984 32.0053C32.3403 32.3746 32.3581 32.7474 32.5429 33.0319C32.733 33.3327 33.0937 33.5038 33.529 33.5038H52.4533C52.8832 33.5038 53.2439 33.3327 53.4376 33.0319C53.6206 32.7474 53.6366 32.3746 53.4785 32.0053L51.2113 26.7266C51.0034 26.2439 50.5397 25.8333 50.0102 25.6244L50.1257 25.3434L49.3191 24.4915H50.0031C50.991 24.4915 52.1477 25.2696 52.5243 26.1881L54.1216 30.0927L55.8167 29.6244C56.4687 29.4443 57 29.8657 57 30.5231ZM53.9226 39.0779V37.0049C53.9226 36.5007 53.5175 36.0936 53.0165 36.0936H48.7132C48.2104 36.0936 47.807 36.5007 47.807 37.0049V39.0779C47.807 39.5822 48.2104 39.9928 48.7132 39.9928H53.0165C53.5175 39.9928 53.9226 39.5822 53.9226 39.0779ZM38.1308 39.0779V37.0049C38.1308 36.5007 37.7257 36.0936 37.2246 36.0936H32.9195C32.4203 36.0936 32.0134 36.5007 32.0134 37.0049V39.0779C32.0134 39.5822 32.4203 39.9928 32.9195 39.9928H37.2246C37.7257 39.9928 38.1308 39.5822 38.1308 39.0779Z" fill="#265FE5"/>
<path d="M50.1257 25.3434L50.0102 25.6244C49.7668 25.5289 49.5092 25.4713 49.2587 25.4713H45.8277L45.9006 25.3939C46.0907 25.1813 46.2968 24.9832 46.5065 24.8031C46.6859 24.6501 46.7961 24.5564 46.8956 24.4915H48.4094C48.4733 24.5186 48.5355 24.5456 48.5995 24.5762L50.1257 25.3434Z" fill="#265FE5"/>
<path d="M47.7893 23.735H47.7627C47.5495 23.7224 47.2225 23.7044 46.8494 23.8449C46.8174 23.8575 46.7855 23.8719 46.7535 23.8881H46.2009C46.208 23.7494 46.2045 23.627 46.1742 23.4919C46.1067 23.1839 45.9664 22.966 45.7496 22.6814C46.0463 22.7427 46.3359 22.7571 46.638 22.658C46.8814 22.577 47.0715 22.4077 47.3931 22.0979C47.2652 22.604 47.235 22.7823 47.2936 23.0146C47.3522 23.2415 47.4517 23.373 47.7893 23.735Z" fill="#265FE5"/>
<path d="M46.2008 23.8883H46.7534C46.5953 23.9603 46.4584 24.0612 46.3039 24.1909H46.1742C46.1848 24.0774 46.1973 23.9765 46.2008 23.8883Z" fill="#265FE5"/>
<path d="M46.3039 24.1909C46.2577 24.2269 46.208 24.2683 46.1582 24.3115C46.1618 24.2683 46.1707 24.2269 46.1742 24.1909H46.3039Z" fill="#265FE5"/>
<path d="M42.2849 24.4915H45.5292C45.499 24.7023 45.4511 24.9058 45.396 25.1057L45.2912 25.4713H41.9473L42.0344 25.1975C42.1108 24.9598 42.1943 24.7221 42.2849 24.4915Z" fill="#265FE5"/>
<path d="M44.8504 22.1053C44.861 22.1089 44.8735 22.1126 44.8859 22.1216C44.877 22.118 44.8735 22.118 44.8664 22.1216C44.8575 22.1126 44.8539 22.1089 44.8504 22.1053Z" fill="#265FE5"/>
<path d="M43.8999 21.9322C43.9248 21.9448 43.9479 21.952 43.971 21.9628C43.8537 21.9971 43.7382 22.0367 43.6227 22.0853C43.3296 22.2024 42.928 22.3591 42.5531 22.7535C42.2884 23.0308 42.1587 23.3172 41.9348 23.7962C41.9241 23.8269 41.9081 23.8575 41.8904 23.8881H41.7802C41.7642 23.8377 41.7482 23.78 41.7323 23.7278C41.5741 23.2415 41.4906 22.9696 41.2792 22.6922C40.9736 22.2816 40.6005 22.0889 39.9839 21.7863C40.5294 21.6747 41.0056 21.545 41.4053 21.1668C41.4782 21.1019 41.5368 21.0263 41.5901 20.9417C41.7429 20.7165 41.8673 20.4068 42.0503 19.9475L42.1089 19.7926C42.132 19.7386 42.1516 19.6846 42.1782 19.6305C42.1924 19.7188 42.2084 19.807 42.2244 19.8953C42.379 20.7328 42.4323 20.9831 42.6437 21.2442C42.8569 21.5018 43.079 21.5972 43.8999 21.9322Z" fill="#265FE5"/>
<path d="M41.7803 23.8883H41.8905C41.8709 23.9369 41.8478 23.9909 41.8283 24.0414C41.8141 23.9909 41.7963 23.9405 41.7803 23.8883Z" fill="#265FE5"/>
<path d="M41.4551 25.1489L41.5031 25.4713H37.1305C37.1305 25.0643 37.1571 24.7869 37.246 24.4915H41.329C41.3787 24.7095 41.4232 24.9292 41.4551 25.1489Z" fill="#265FE5"/>
<path d="M38.7153 16.2355C38.7313 16.2355 38.7491 16.2319 38.7633 16.2319C38.6851 16.3075 38.6051 16.385 38.5287 16.4696C38.3226 16.7002 38.0401 17.0099 37.8767 17.5178C37.7665 17.8708 37.7701 18.177 37.779 18.6903C37.7825 18.7677 37.7825 18.8451 37.7861 18.9244C37.7221 18.8524 37.6546 18.7803 37.5906 18.7119C37.2459 18.3553 37.0594 18.1554 36.7626 18.0023C36.3273 17.7826 35.9258 17.7736 35.2808 17.7736C35.6984 17.4476 36.0502 17.1342 36.2332 16.6389C36.3575 16.3165 36.3344 15.9545 36.2847 15.2972L36.274 15.1369C36.2705 15.0937 36.2651 15.0432 36.2616 15C36.3078 15.0594 36.3522 15.1207 36.3966 15.1855C36.8923 15.8573 37.0363 16.0392 37.3294 16.1761C37.6226 16.3129 37.8625 16.3003 38.7153 16.2355Z" fill="#265FE5"/>
<path d="M38.6194 21.7684C38.5927 21.7918 38.559 21.8116 38.5323 21.8404L38.3884 21.7882C38.4648 21.781 38.5394 21.7756 38.6194 21.7684Z" fill="#265FE5"/>
<path d="M38.3884 21.7863L38.5323 21.8385C38.248 22.0582 37.9868 22.2977 37.7487 22.5643C37.4662 22.8741 37.0984 23.2847 36.8372 23.888H35.9737C35.1404 23.888 34.2609 24.295 33.6266 24.911C33.202 24.839 32.7205 24.8335 32.1111 24.8335C31.9103 24.8335 31.7006 24.8335 31.4981 24.8426C31.546 24.8065 31.5922 24.7705 31.6402 24.7327C32.4753 24.0987 33.1949 23.5494 33.536 22.6363C33.7261 22.132 33.687 21.5413 33.6071 20.4661L33.5858 20.1923C33.5662 19.8682 33.536 19.5404 33.4952 19.2144C33.7137 19.5152 33.9376 19.8232 34.1668 20.1329C34.977 21.2351 35.208 21.5323 35.6557 21.7394C36.1141 21.9483 36.4659 21.9321 37.8962 21.8241C38.0437 21.8115 38.2107 21.8007 38.3884 21.7863Z" fill="#265FE5"/>
<path d="M35.9738 23.8883H36.8373C36.7876 23.9837 36.7503 24.0864 36.7165 24.1909H35.9738C35.2915 24.1909 34.556 24.506 33.9909 24.9869C33.8737 24.9563 33.7529 24.9257 33.6267 24.9113C34.261 24.2953 35.1405 23.8883 35.9738 23.8883Z" fill="#265FE5"/>
<path d="M36.7165 24.1909C36.7094 24.2107 36.7005 24.2341 36.6934 24.2557C36.6685 24.3368 36.6454 24.4124 36.6294 24.4916H35.9738C35.423 24.4916 34.8171 24.733 34.325 25.1094C34.2148 25.0608 34.1082 25.0211 33.9909 24.9869C34.5559 24.506 35.2915 24.1909 35.9738 24.1909H36.7165Z" fill="#265FE5"/>
<path d="M35.9738 24.4915H36.6294C36.5583 24.8013 36.5334 25.1093 36.5334 25.4821C36.1479 25.5199 35.7641 25.6784 35.4425 25.9125C35.1209 25.5866 34.8633 25.3704 34.5257 25.1975C34.4564 25.1651 34.3924 25.1327 34.3249 25.1093C34.8171 24.7329 35.423 24.4915 35.9738 24.4915Z" fill="#265FE5"/>
<path d="M36.5388 26.1663C36.5424 26.4959 36.5583 26.8273 36.585 27.1659C36.3558 26.8831 36.1177 26.6147 35.8672 26.3518C36.0733 26.2185 36.3078 26.1231 36.5388 26.0888V26.1663Z" fill="#265FE5"/>
<path d="M36.5316 25.7867C36.5352 25.8839 36.5352 25.983 36.5387 26.0928C36.3095 26.1253 36.0732 26.2207 35.8689 26.3558C35.7925 26.2784 35.725 26.2009 35.6575 26.1325C35.9187 25.9524 36.2296 25.8227 36.5316 25.7867Z" fill="#265FE5"/>
<path d="M36.5352 25.4841C36.5316 25.5813 36.5316 25.6822 36.5316 25.7866C36.2296 25.8227 35.9186 25.9523 35.6575 26.1324C35.5811 26.0568 35.5118 25.983 35.4425 25.9145C35.7641 25.6822 36.1496 25.5219 36.5352 25.4841Z" fill="#265FE5"/>
<path d="M31.7487 19.539C31.7487 19.5426 31.7451 19.5462 31.7416 19.5516C31.5941 19.7119 31.3756 19.9533 31.2565 20.3351C31.173 20.589 31.173 20.8069 31.1766 21.1491C30.9296 20.8916 30.7963 20.7493 30.5689 20.634C30.3006 20.4972 30.0501 20.4683 29.709 20.4647C29.9293 20.2702 30.1212 20.0541 30.2313 19.7588C30.3237 19.5246 30.3113 19.2725 30.2811 18.8366C30.5813 19.2437 30.6933 19.3787 30.9065 19.4742C31.1126 19.5714 31.2743 19.575 31.7487 19.539Z" fill="#265FE5"/>
<defs>
<filter id="filter0_d_123_512" x="0" y="0" width="85" height="85" filterUnits="userSpaceOnUse" color-interpolation-filters="sRGB">
<feFlood flood-opacity="0" result="BackgroundImageFix"/>
<feColorMatrix in="SourceAlpha" type="matrix" values="0 0 0 0 0 0 0 0 0 0 0 0 0 0 0 0 0 0 127 0" result="hardAlpha"/>
<feOffset dy="12"/>
<feGaussianBlur stdDeviation="7"/>
<feComposite in2="hardAlpha" operator="out"/>
<feColorMatrix type="matrix" values="0 0 0 0 0.14902 0 0 0 0 0.372549 0 0 0 0 0.898039 0 0 0 0.1 0"/>
<feBlend mode="normal" in2="BackgroundImageFix" result="effect1_dropShadow_123_512"/>
<feBlend mode="normal" in="SourceGraphic" in2="effect1_dropShadow_123_512" result="shape"/>
</filter>
</defs>
</svg>
