<svg width="85" height="85" viewBox="0 0 85 85" fill="none" xmlns="http://www.w3.org/2000/svg">
<g filter="url(#filter0_d_123_590)">
<rect x="14" y="2" width="57" height="57" rx="14" fill="white"/>
</g>
<path d="M29 28.5556H36.2222V39.3889C36.2222 41.3833 34.6055 43 32.6111 43C30.6167 43 29 41.3833 29 39.3889V28.5556Z" fill="#265FE5"/>
<path d="M29 24.2222H36.2222C36.2222 23.0256 35.2522 22.0555 34.0556 22.0555H31.1667C29.97 22.0555 29 23.0256 29 24.2222Z" fill="#265FE5"/>
<rect width="7.22222" height="1.44444" rx="0.722222" transform="matrix(1 0 0 -1 29 27.1111)" fill="#265FE5"/>
<path d="M38.3889 28.5556H45.6111V39.3889C45.6111 41.3833 43.9944 43 42 43C40.0056 43 38.3889 41.3833 38.3889 39.3889V28.5556Z" fill="#265FE5"/>
<path d="M38.3889 24.2222H45.6111C45.6111 23.0256 44.6411 22.0555 43.4444 22.0555H40.5556C39.3589 22.0555 38.3889 23.0256 38.3889 24.2222Z" fill="#265FE5"/>
<rect width="7.22222" height="1.44444" rx="0.722222" transform="matrix(1 0 0 -1 38.3889 27.1111)" fill="#265FE5"/>
<path d="M47.7778 28.5556H55V39.3889C55 41.3833 53.3833 43 51.3889 43C49.3945 43 47.7778 41.3833 47.7778 39.3889V28.5556Z" fill="#265FE5"/>
<path d="M47.7778 24.2222H55C55 23.0256 54.03 22.0555 52.8333 22.0555H49.9444C48.7478 22.0555 47.7778 23.0256 47.7778 24.2222Z" fill="#265FE5"/>
<rect width="7.22222" height="1.44444" rx="0.722222" transform="matrix(1 0 0 -1 47.7778 27.1111)" fill="#265FE5"/>
<rect x="32.6111" y="17" width="0.722222" height="4.33333" fill="#265FE5"/>
<rect x="42" y="17" width="0.722222" height="4.33333" fill="#265FE5"/>
<rect x="52.1111" y="17" width="0.722222" height="4.33333" fill="#265FE5"/>
<rect x="32.6111" y="17.7222" width="0.722222" height="20.2222" transform="rotate(-90 32.6111 17.7222)" fill="#265FE5"/>
<defs>
<filter id="filter0_d_123_590" x="0" y="0" width="85" height="85" filterUnits="userSpaceOnUse" color-interpolation-filters="sRGB">
<feFlood flood-opacity="0" result="BackgroundImageFix"/>
<feColorMatrix in="SourceAlpha" type="matrix" values="0 0 0 0 0 0 0 0 0 0 0 0 0 0 0 0 0 0 127 0" result="hardAlpha"/>
<feOffset dy="12"/>
<feGaussianBlur stdDeviation="7"/>
<feComposite in2="hardAlpha" operator="out"/>
<feColorMatrix type="matrix" values="0 0 0 0 0.14902 0 0 0 0 0.372549 0 0 0 0 0.898039 0 0 0 0.1 0"/>
<feBlend mode="normal" in2="BackgroundImageFix" result="effect1_dropShadow_123_590"/>
<feBlend mode="normal" in="SourceGraphic" in2="effect1_dropShadow_123_590" result="shape"/>
</filter>
</defs>
</svg>
