<svg width="85" height="85" viewBox="0 0 85 85" fill="none" xmlns="http://www.w3.org/2000/svg">
<g filter="url(#filter0_d_123_568)">
<rect x="14" y="2" width="57" height="57" rx="14" fill="white"/>
</g>
<path fill-rule="evenodd" clip-rule="evenodd" d="M36.3125 25.6667C36.3125 22.5255 38.8589 19.9792 42 19.9792C44.649 19.9792 46.8769 21.791 47.5084 24.2442C47.6202 24.6788 48.0632 24.9404 48.4977 24.8285C48.9323 24.7167 49.1939 24.2737 49.0821 23.8391C48.2704 20.6854 45.4084 18.3542 42 18.3542C37.9614 18.3542 34.6875 21.6281 34.6875 25.6667V27.8925C33.4799 27.9827 32.6934 28.2104 32.1186 28.7852C31.1667 29.7371 31.1667 31.2692 31.1667 34.3333C31.1667 37.3975 31.1667 38.9295 32.1186 39.8814C33.0705 40.8333 34.6025 40.8333 37.6667 40.8333H46.3333C49.3975 40.8333 50.9295 40.8333 51.8814 39.8814C52.8333 38.9295 52.8333 37.3975 52.8333 34.3333C52.8333 31.2692 52.8333 29.7371 51.8814 28.7852C50.9295 27.8333 49.3975 27.8333 46.3333 27.8333H37.6667C37.1775 27.8333 36.7274 27.8333 36.3125 27.8372V25.6667ZM37.6667 35.4167C38.265 35.4167 38.75 34.9316 38.75 34.3333C38.75 33.735 38.265 33.25 37.6667 33.25C37.0684 33.25 36.5833 33.735 36.5833 34.3333C36.5833 34.9316 37.0684 35.4167 37.6667 35.4167ZM42 35.4167C42.5983 35.4167 43.0833 34.9316 43.0833 34.3333C43.0833 33.735 42.5983 33.25 42 33.25C41.4017 33.25 40.9167 33.735 40.9167 34.3333C40.9167 34.9316 41.4017 35.4167 42 35.4167ZM47.4167 34.3333C47.4167 34.9316 46.9316 35.4167 46.3333 35.4167C45.735 35.4167 45.25 34.9316 45.25 34.3333C45.25 33.735 45.735 33.25 46.3333 33.25C46.9316 33.25 47.4167 33.735 47.4167 34.3333Z" fill="#265FE5"/>
<defs>
<filter id="filter0_d_123_568" x="0" y="0" width="85" height="85" filterUnits="userSpaceOnUse" color-interpolation-filters="sRGB">
<feFlood flood-opacity="0" result="BackgroundImageFix"/>
<feColorMatrix in="SourceAlpha" type="matrix" values="0 0 0 0 0 0 0 0 0 0 0 0 0 0 0 0 0 0 127 0" result="hardAlpha"/>
<feOffset dy="12"/>
<feGaussianBlur stdDeviation="7"/>
<feComposite in2="hardAlpha" operator="out"/>
<feColorMatrix type="matrix" values="0 0 0 0 0.14902 0 0 0 0 0.372549 0 0 0 0 0.898039 0 0 0 0.1 0"/>
<feBlend mode="normal" in2="BackgroundImageFix" result="effect1_dropShadow_123_568"/>
<feBlend mode="normal" in="SourceGraphic" in2="effect1_dropShadow_123_568" result="shape"/>
</filter>
</defs>
</svg>
