<svg width="85" height="85" viewBox="0 0 85 85" fill="none" xmlns="http://www.w3.org/2000/svg">
<g filter="url(#filter0_d_123_557)">
<rect x="14" y="2" width="57" height="57" rx="14" fill="white"/>
</g>
<path fill-rule="evenodd" clip-rule="evenodd" d="M30.4167 30.5C30.4167 24.8039 30.4167 21.9558 32.1862 20.1862C33.9558 18.4167 36.8039 18.4167 42.5 18.4167C48.1961 18.4167 51.0442 18.4167 52.8138 20.1862C54.5833 21.9558 54.5833 24.8039 54.5833 30.5C54.5833 36.1961 54.5833 39.0442 52.8138 40.8138C51.0442 42.5833 48.1961 42.5833 42.5 42.5833C36.8039 42.5833 33.9558 42.5833 32.1862 40.8138C30.4167 39.0442 30.4167 36.1961 30.4167 30.5ZM37.6667 34.4271C37.1662 34.4271 36.7604 34.8328 36.7604 35.3333C36.7604 35.8338 37.1662 36.2396 37.6667 36.2396H47.3333C47.8338 36.2396 48.2396 35.8338 48.2396 35.3333C48.2396 34.8328 47.8338 34.4271 47.3333 34.4271H37.6667ZM37.1662 23.9578C37.874 23.25 39.0132 23.25 41.2917 23.25H43.7083C45.9868 23.25 47.126 23.25 47.8338 23.9578C48.5417 24.6657 48.5417 25.8049 48.5417 28.0833V28.3854H50.9583C51.4588 28.3854 51.8646 28.7912 51.8646 29.2917C51.8646 29.7922 51.4588 30.1979 50.9583 30.1979H34.0417C33.5412 30.1979 33.1354 29.7922 33.1354 29.2917C33.1354 28.7912 33.5412 28.3854 34.0417 28.3854H36.4583V28.0833C36.4583 25.8049 36.4583 24.6657 37.1662 23.9578Z" fill="#265FE5"/>
<defs>
<filter id="filter0_d_123_557" x="0" y="0" width="85" height="85" filterUnits="userSpaceOnUse" color-interpolation-filters="sRGB">
<feFlood flood-opacity="0" result="BackgroundImageFix"/>
<feColorMatrix in="SourceAlpha" type="matrix" values="0 0 0 0 0 0 0 0 0 0 0 0 0 0 0 0 0 0 127 0" result="hardAlpha"/>
<feOffset dy="12"/>
<feGaussianBlur stdDeviation="7"/>
<feComposite in2="hardAlpha" operator="out"/>
<feColorMatrix type="matrix" values="0 0 0 0 0.14902 0 0 0 0 0.372549 0 0 0 0 0.898039 0 0 0 0.1 0"/>
<feBlend mode="normal" in2="BackgroundImageFix" result="effect1_dropShadow_123_557"/>
<feBlend mode="normal" in="SourceGraphic" in2="effect1_dropShadow_123_557" result="shape"/>
</filter>
</defs>
</svg>
