<svg width="85" height="85" viewBox="0 0 85 85" fill="none" xmlns="http://www.w3.org/2000/svg">
<g filter="url(#filter0_d_81_195)">
<rect x="14" y="2" width="57" height="57" rx="14" fill="white"/>
</g>
<path d="M42.6584 23.4873C37.7241 23.4873 33.7083 27.3689 33.7083 32.1408C33.7083 36.9128 37.7241 40.7944 42.6584 40.7944C47.5945 40.7944 51.6086 36.9128 51.6086 32.1408C51.6086 27.3689 47.5945 23.4873 42.6584 23.4873ZM42.6584 34.4023C41.3686 34.4023 40.3211 33.3882 40.3211 32.1408C40.3211 30.8953 41.3686 29.8776 42.6584 29.8776C43.9482 29.8776 44.9975 30.8953 44.9975 32.1408C44.9975 33.3882 43.9482 34.4023 42.6584 34.4023ZM44.6663 29.4501C44.2428 29.155 43.746 28.9501 43.2074 28.8653V24.5739C44.9609 24.6905 46.5539 25.3654 47.8054 26.4166L44.6663 29.4501ZM42.1111 28.8653C41.5725 28.9501 41.0758 29.155 40.6522 29.4501L37.5132 26.4166C38.7646 25.3654 40.3577 24.6905 42.1111 24.5739V28.8653ZM39.8766 30.1992C39.5699 30.6108 39.359 31.0914 39.2718 31.6108H34.8325C34.9562 29.9165 35.6517 28.3741 36.7393 27.1657L39.8766 30.1992ZM39.2718 32.6709C39.359 33.1903 39.5699 33.6709 39.8766 34.0807L36.7393 37.116C35.6517 35.9076 34.9562 34.367 34.8325 32.6709H39.2718ZM40.6522 34.8298C41.0758 35.1284 41.5725 35.3316 42.1111 35.4164V39.7078C40.3577 39.5912 38.7646 38.9181 37.5132 37.8651L40.6522 34.8298ZM43.2074 35.4164C43.746 35.3316 44.2428 35.1284 44.6663 34.8298L47.8054 37.8651C46.5539 38.9181 44.9609 39.5912 43.2074 39.7078V35.4164ZM45.4419 34.0807C45.7469 33.6709 45.9596 33.1903 46.0467 32.6709H50.4843C50.3623 34.367 49.6669 35.9076 48.5793 37.116L45.4419 34.0807ZM46.0467 31.6108C45.9596 31.0914 45.7469 30.6108 45.4419 30.1992L48.5793 27.1657C49.6669 28.3741 50.3623 29.9165 50.4843 31.6108H46.0467Z" fill="#265FE5"/>
<path d="M52.3911 14C52.0198 14.6908 51.3662 15.901 50.5191 17.4204C49.3757 19.4681 49.055 19.9698 49.062 20.8409C49.069 21.9362 49.5936 23.5299 51.0263 24.1517C52.1645 24.6447 53.2538 24.2489 53.395 24.1941C55.1136 23.544 55.4657 21.6112 55.511 21.3444C55.6905 20.2631 55.2861 19.3674 54.4704 17.6218C54.0329 16.6855 53.3706 15.4205 52.3911 14Z" fill="#265FE5"/>
<path d="M55.5145 24.542C55.3036 24.936 54.9306 25.625 54.4478 26.489C53.7959 27.6585 53.6147 27.9448 53.6182 28.4394C53.6234 29.0613 53.9214 29.9712 54.7371 30.3246C55.3873 30.6055 56.006 30.3793 56.0879 30.3511C57.0657 29.9783 57.2679 28.8776 57.2923 28.7257C57.3952 28.1108 57.1651 27.6002 56.7015 26.6056C56.4522 26.0702 56.0723 25.3494 55.5145 24.542Z" fill="#265FE5"/>
<path d="M54.6744 26.9239C54.1393 27.878 54.0278 28.0917 54.0295 28.4362C54.0347 28.991 54.3084 29.703 54.9045 29.9592C55.3942 30.173 55.8805 29.9998 55.9346 29.9786C56.6335 29.7136 56.8305 28.938 56.8758 28.7048C56.5708 27.5334 56.1089 26.4204 55.5232 25.3833C55.3298 25.742 55.0892 26.1819 54.8104 26.6783L54.6744 26.9239Z" fill="#265FE5"/>
<path d="M56.2379 30.724C56.1193 30.7682 55.8161 30.8654 55.4274 30.8654C55.1694 30.8654 54.8714 30.823 54.5681 30.6904C53.6339 30.2859 53.2103 29.2717 53.2051 28.4431C53.1999 27.8813 53.3881 27.5439 53.9493 26.5439L54.0853 26.3018C54.4931 25.5704 54.8139 24.9785 55.0317 24.5722C54.8888 24.3531 54.7476 24.1358 54.5925 23.9256C54.3066 24.1817 53.965 24.4096 53.5485 24.5669C53.4073 24.6217 52.8983 24.7948 52.236 24.7948C51.8212 24.7948 51.3436 24.7259 50.8573 24.5157C49.3462 23.862 48.6594 22.1994 48.649 20.8443C48.6455 20.3285 48.7448 19.9292 49.0045 19.3656C47.0838 18.4698 44.9312 17.9663 42.6584 17.9663C34.5762 17.9663 28 24.3248 28 32.1409C28 39.9553 34.5762 46.3138 42.6584 46.3138C50.7423 46.3138 57.3168 39.9553 57.3168 32.1409C57.3168 31.4254 57.2575 30.724 57.1494 30.0385C56.935 30.3141 56.644 30.5703 56.2379 30.724ZM42.6584 42.0754C36.9937 42.0754 32.3836 37.6196 32.3836 32.1409C32.3836 26.6605 36.9937 22.2047 42.6584 22.2047C48.3248 22.2047 52.9349 26.6605 52.9349 32.1409C52.9349 37.6196 48.3248 42.0754 42.6584 42.0754Z" fill="#265FE5"/>
<defs>
<filter id="filter0_d_81_195" x="0" y="0" width="85" height="85" filterUnits="userSpaceOnUse" color-interpolation-filters="sRGB">
<feFlood flood-opacity="0" result="BackgroundImageFix"/>
<feColorMatrix in="SourceAlpha" type="matrix" values="0 0 0 0 0 0 0 0 0 0 0 0 0 0 0 0 0 0 127 0" result="hardAlpha"/>
<feOffset dy="12"/>
<feGaussianBlur stdDeviation="7"/>
<feComposite in2="hardAlpha" operator="out"/>
<feColorMatrix type="matrix" values="0 0 0 0 0.14902 0 0 0 0 0.372549 0 0 0 0 0.898039 0 0 0 0.1 0"/>
<feBlend mode="normal" in2="BackgroundImageFix" result="effect1_dropShadow_81_195"/>
<feBlend mode="normal" in="SourceGraphic" in2="effect1_dropShadow_81_195" result="shape"/>
</filter>
</defs>
</svg>
