<svg width="85" height="85" viewBox="0 0 85 85" fill="none" xmlns="http://www.w3.org/2000/svg">
<g filter="url(#filter0_d_49_836)">
<rect x="14" y="2" width="57" height="57" rx="14" fill="white"/>
</g>
<path d="M56 24.9685V25.7847C56 26.4302 55.4736 26.9544 54.8288 26.9544H54.224L54.6197 27.9148C54.9857 28.8084 55.2872 30.3211 55.2872 31.2816V38.2314C55.2872 38.8752 54.7608 39.4011 54.1125 39.4011H52.2075C51.5592 39.4011 51.0346 38.8752 51.0346 38.2314V36.2085H34.0767V38.2314C34.0767 38.8752 33.5521 39.4011 32.9037 39.4011H31.0023C30.3539 39.4011 29.8276 38.8752 29.8276 38.2314V31.2816C29.8276 30.3159 30.1256 28.8084 30.4899 27.9148L30.8873 26.9544H30.3051C29.6568 26.9544 29.1322 26.4302 29.1322 25.7847V24.9685C29.1322 24.3423 29.6411 23.943 30.2633 24.1118L31.8737 24.5534L32.4279 23.2112C32.8305 23.3801 33.2662 23.4927 33.7159 23.5455L32.4924 26.3845C32.339 26.7381 32.3547 27.0916 32.529 27.366C32.7172 27.6545 33.0606 27.8163 33.4754 27.8163H51.6359C52.0507 27.8163 52.3975 27.6545 52.5823 27.366C52.76 27.0916 52.7757 26.7381 52.6223 26.3845L51.4825 23.7425C51.6882 23.7724 51.8991 23.7882 52.1117 23.7882C52.3783 23.7882 52.638 23.7653 52.8925 23.7143L53.2411 24.5586L54.8689 24.1118C55.4911 23.9377 56 24.3388 56 24.9685V24.9685ZM53.0493 33.1426V31.162C53.0493 30.6817 52.6607 30.293 52.1814 30.293H48.0491C47.5681 30.293 47.1794 30.6817 47.1794 31.162V33.1426C47.1794 33.6246 47.5681 34.0168 48.0491 34.0168H52.1814C52.6607 34.0168 53.0493 33.6246 53.0493 33.1426ZM37.8953 33.1426V31.162C37.8953 30.6817 37.5049 30.293 37.0273 30.293H32.8933C32.4157 30.293 32.0236 30.6817 32.0236 31.162V33.1426C32.0236 33.6246 32.4157 34.0168 32.8933 34.0168H37.0273C37.5049 34.0168 37.8953 33.6246 37.8953 33.1426V33.1426Z" fill="#265FE5"/>
<path d="M52.7828 23.4415L52.8926 23.7141C52.6381 23.7651 52.3784 23.788 52.1118 23.788C51.8991 23.788 51.6882 23.7722 51.4826 23.7422L51.3466 23.4256C51.5924 23.4714 51.8503 23.4995 52.1118 23.4995C52.3418 23.4995 52.5649 23.4784 52.7828 23.4415V23.4415Z" fill="#265FE5"/>
<path d="M52.6694 23.1688L52.7827 23.4415C52.5648 23.4784 52.3418 23.4995 52.1134 23.4995C51.8503 23.4995 51.5923 23.4714 51.3466 23.4256L51.2054 23.0985C51.4947 23.1723 51.7997 23.211 52.1134 23.211C52.3034 23.211 52.4847 23.1952 52.6694 23.1688Z" fill="#265FE5"/>
<path d="M51.7039 20.826L52.6677 23.169C52.4847 23.1954 52.3017 23.2112 52.1118 23.2112C51.7981 23.2112 51.4931 23.1725 51.2055 23.1004L50.545 21.5683C50.9214 21.2605 51.2491 20.8876 51.5087 20.4689C51.5889 20.5833 51.6534 20.7046 51.7039 20.826V20.826Z" fill="#265FE5"/>
<path d="M51.3256 20.2258C51.3954 20.3032 51.4564 20.3842 51.5086 20.4686C51.249 20.8872 50.9213 21.2601 50.5449 21.568L50.4455 21.341C50.4368 21.3252 50.4333 21.3147 50.4229 21.2988C50.7801 20.9945 51.0851 20.6339 51.3256 20.2258V20.2258Z" fill="#265FE5"/>
<path d="M51.1216 20.0061C51.1948 20.08 51.2646 20.1486 51.3256 20.226C51.0868 20.6341 50.78 20.9947 50.4228 21.299C50.3862 21.211 50.3356 21.1266 50.2781 21.0457C50.6145 20.7484 50.9003 20.3984 51.1216 20.0061V20.0061Z" fill="#265FE5"/>
<path d="M49.6995 19.2536C50.2102 19.3538 50.726 19.6353 51.1217 20.0064C50.9003 20.4004 50.6145 20.7487 50.2781 21.046C49.9104 20.5183 49.2185 20.1419 48.5754 20.1419H48.4394C48.3993 19.9308 48.3767 19.7127 48.3732 19.4893C48.8298 19.4647 49.276 19.3855 49.6995 19.2536V19.2536Z" fill="#265FE5"/>
<path d="M49.283 19.2059C49.4207 19.2059 49.5583 19.2235 49.6978 19.2534C49.276 19.3836 48.8298 19.4645 48.3732 19.4874V19.4399C48.3732 19.3607 48.3767 19.2833 48.3802 19.2059H49.283Z" fill="#265FE5"/>
<path d="M48.4377 20.1417H48.1466C48.11 19.9324 48.0891 19.7196 48.0856 19.4997C48.1815 19.4997 48.2773 19.4962 48.3732 19.4874C48.3767 19.709 48.3993 19.9289 48.4377 20.1417V20.1417Z" fill="#265FE5"/>
<path d="M48.1937 19.2059H48.3802C48.3767 19.2833 48.3732 19.3607 48.3732 19.4399V19.4874C48.2773 19.4944 48.1815 19.4997 48.0856 19.4997V19.4399C48.0856 19.3642 48.0891 19.2868 48.0891 19.2094C48.1257 19.2094 48.1588 19.2094 48.1937 19.2059V19.2059Z" fill="#265FE5"/>
<path d="M48.1937 19.2059C48.1589 19.2095 48.1258 19.2095 48.0892 19.2095L48.0944 19.2059H48.1937Z" fill="#265FE5"/>
<path d="M48.1484 20.1416H47.8591C47.8242 19.9288 47.8051 19.716 47.8016 19.4908C47.8852 19.4996 47.9689 19.4996 48.0543 19.4996H48.0874C48.0909 19.7195 48.1118 19.9323 48.1484 20.1416V20.1416Z" fill="#265FE5"/>
<path d="M48.1222 18.9191C48.0978 18.9226 48.0752 18.9226 48.0542 18.9226C48.0124 18.9226 47.9654 18.9226 47.9235 18.9191H48.1222Z" fill="#265FE5"/>
<path d="M48.0944 19.2059L48.0909 19.2095H48.0525C48.0072 19.2095 47.9619 19.2095 47.9149 19.2059H48.0944Z" fill="#265FE5"/>
<path d="M48.0909 19.2094C48.0909 19.2868 48.0874 19.3642 48.0874 19.4399V19.4997H48.0543C47.9706 19.4997 47.8852 19.4997 47.8016 19.4909V19.4399C47.8016 19.359 47.8051 19.2833 47.8051 19.2059H47.9166C47.9619 19.2094 48.0072 19.2094 48.0543 19.2094H48.0909Z" fill="#265FE5"/>
<path d="M47.9149 19.2061H47.8051V19.2025C47.8417 19.2061 47.8783 19.2061 47.9149 19.2061Z" fill="#265FE5"/>
<path d="M47.8591 20.1417H44.4362C44.3822 20.0643 44.3368 19.9799 44.295 19.899C44.5355 19.6861 44.7569 19.4575 44.959 19.2059H44.9625H46.2662C46.7542 19.3713 47.2666 19.468 47.8016 19.4909C47.8051 19.716 47.8243 19.9289 47.8591 20.1417Z" fill="#265FE5"/>
<path d="M47.8051 19.2059C47.8051 19.2833 47.8017 19.3607 47.8017 19.4399V19.4909C47.2666 19.468 46.7525 19.3713 46.2645 19.2059H47.8051Z" fill="#265FE5"/>
<path d="M45.0497 18.6291H45.034C45.0392 18.6291 45.0392 18.6256 45.0392 18.6221C45.0427 18.6256 45.0462 18.6291 45.0497 18.6291Z" fill="#265FE5"/>
<path d="M44.5878 19.2059H44.959C44.7569 19.4575 44.5355 19.6861 44.295 19.899C44.248 19.811 44.2079 19.7266 44.1695 19.6316C44.3142 19.4997 44.4554 19.3554 44.5878 19.2059V19.2059Z" fill="#265FE5"/>
<path d="M44.1939 19.2059H44.5913C44.4571 19.3554 44.3142 19.4997 44.1695 19.6316C44.1294 19.5366 44.0894 19.4364 44.0562 19.3379C44.1016 19.2974 44.1469 19.2534 44.1939 19.2059Z" fill="#265FE5"/>
<path d="M44.4362 20.1418H44.1016C44.0911 20.1259 44.0807 20.1066 44.0737 20.0908C44.1504 20.0293 44.2218 19.966 44.295 19.8992C44.3351 19.98 44.3822 20.0644 44.4362 20.1418Z" fill="#265FE5"/>
<path d="M44.1695 19.6352C44.2078 19.7266 44.2497 19.8128 44.2967 19.9008C44.2235 19.9659 44.1503 20.0292 44.0754 20.0925C44.0283 20.0028 43.983 19.9149 43.9464 19.8269C44.0214 19.7653 44.0963 19.6985 44.1695 19.6352V19.6352Z" fill="#265FE5"/>
<path d="M44.1939 19.2059C44.1469 19.2532 44.1016 19.297 44.0562 19.3373C44.0406 19.2935 44.0284 19.248 44.0127 19.2059H44.1939Z" fill="#265FE5"/>
<path d="M44.0736 20.0907C44.0806 20.1066 44.0928 20.126 44.1015 20.1419H44.0039C44.0283 20.126 44.0509 20.1066 44.0736 20.0907Z" fill="#265FE5"/>
<path d="M44.0544 19.3377C44.0875 19.4379 44.1276 19.5364 44.1677 19.6349C44.0962 19.6983 44.0213 19.7633 43.9428 19.8267C43.901 19.7334 43.8592 19.642 43.8296 19.5452C43.9062 19.4801 43.9812 19.4115 44.0544 19.3377V19.3377Z" fill="#265FE5"/>
<path d="M44.0736 20.0909C44.051 20.1067 44.0283 20.1261 44.0039 20.1419H43.7756C43.7529 20.0979 43.7355 20.0539 43.7129 20.01C43.793 19.9519 43.8662 19.8921 43.9429 19.8253C43.983 19.915 44.0283 20.0029 44.0736 20.0909V20.0909Z" fill="#265FE5"/>
<path d="M44.0126 19.2059C44.0283 19.2481 44.0405 19.2939 44.0562 19.3379C43.983 19.41 43.9063 19.4803 43.8296 19.5454C43.7861 19.4328 43.7495 19.322 43.7198 19.2059H44.0126Z" fill="#265FE5"/>
<path d="M43.8296 19.5452C43.8592 19.642 43.9028 19.7352 43.9428 19.8267C43.8662 19.8935 43.793 19.9551 43.7128 20.0114C43.6692 19.9199 43.6291 19.8267 43.5925 19.7352C43.6727 19.6772 43.7529 19.6103 43.8296 19.5452V19.5452Z" fill="#265FE5"/>
<path d="M43.8297 19.5456C43.753 19.6107 43.6728 19.6775 43.5927 19.7356C43.5247 19.5632 43.4689 19.389 43.4219 19.2079H43.7199C43.7495 19.324 43.7844 19.4348 43.8297 19.5456V19.5456Z" fill="#265FE5"/>
<path d="M43.7756 20.1409H43.5316C43.5926 20.0989 43.6501 20.0568 43.7129 20.0095C43.7338 20.0533 43.753 20.0989 43.7756 20.1409Z" fill="#265FE5"/>
<path d="M43.7129 20.0095C43.6519 20.057 43.5944 20.0975 43.5317 20.1415H42.9844C43.197 20.0166 43.3992 19.8829 43.5944 19.7334C43.6293 19.8249 43.6693 19.9181 43.7129 20.0095Z" fill="#265FE5"/>
<path d="M43.4219 19.2059C43.469 19.3889 43.5247 19.5612 43.5927 19.7336C43.3992 19.8849 43.1971 20.0168 42.9844 20.1417H39.0892C39.192 19.8409 39.2669 19.5296 39.314 19.2059H43.4219Z" fill="#265FE5"/>
<path d="M39.0281 19.2059H39.3139C39.2686 19.5296 39.1919 19.8409 39.0891 20.1417H38.7876C38.8991 19.8444 38.9793 19.5296 39.0281 19.2059Z" fill="#265FE5"/>
<path d="M38.7336 19.2059H39.0281C38.9793 19.5296 38.8991 19.8444 38.7876 20.1417H38.4791C38.5976 19.8444 38.6848 19.5296 38.7336 19.2059V19.2059Z" fill="#265FE5"/>
<path d="M36.4556 19.2059H38.737C38.6864 19.5296 38.5993 19.8444 38.479 20.1417H37.6634C37.2189 19.8884 36.8111 19.5718 36.4556 19.2059Z" fill="#265FE5"/>
<path d="M38.2089 20.7188C38.2089 20.7223 38.2054 20.7223 38.2054 20.7223C38.202 20.7223 38.1985 20.7223 38.1932 20.7188H38.2089Z" fill="#265FE5"/>
<path d="M37.6635 20.1417H37.1163C36.7276 19.8726 36.3738 19.5612 36.0601 19.2059H36.4557C36.8113 19.5718 37.2191 19.8884 37.6635 20.1417Z" fill="#265FE5"/>
<path d="M37.1162 20.1417H36.6439C36.2936 19.8726 35.9764 19.5577 35.694 19.213C35.7393 19.2059 35.7812 19.2059 35.8282 19.2059H36.06C36.3737 19.5612 36.7275 19.8726 37.1162 20.1417V20.1417Z" fill="#265FE5"/>
<path d="M36.6422 20.1415H36.5393C35.776 20.1415 34.9568 20.6674 34.664 21.3411L33.9547 22.9911C33.4928 22.9559 33.0554 22.8504 32.6441 22.6797L33.4057 20.8257C33.7525 19.992 34.7738 19.2761 35.6923 19.2127C35.9747 19.5575 36.2901 19.8724 36.6422 20.1415V20.1415Z" fill="#265FE5"/>
<path d="M33.9563 22.992L33.8343 23.2739C33.3812 23.2281 32.942 23.1153 32.5342 22.9461L32.6457 22.6818C33.057 22.851 33.4945 22.9585 33.9563 22.992Z" fill="#265FE5"/>
<path d="M33.8327 23.2731L33.7159 23.5462C33.2662 23.4933 32.8305 23.3806 32.4262 23.2114L32.5342 22.9453C32.9403 23.1145 33.3795 23.2255 33.8327 23.2731Z" fill="#265FE5"/>
<rect x="34.4775" y="40.6778" width="16.0359" height="1.06906" rx="0.534529" fill="#265FE5"/>
<line x1="0.35" y1="-0.35" x2="2.28225" y2="-0.35" transform="matrix(0.406139 0.913812 -0.970142 0.242536 34.4775 38.2725)" stroke="#265FE5" stroke-width="0.7" stroke-linecap="round" stroke-dasharray="1 1"/>
<line x1="0.35" y1="-0.35" x2="2.28225" y2="-0.35" transform="matrix(-0.406139 0.913812 0.970142 0.242536 49.4443 38.2725)" stroke="#265FE5" stroke-width="0.7" stroke-linecap="round" stroke-dasharray="1 1"/>
<line x1="38.0346" y1="37.8207" x2="38.0346" y2="39.526" stroke="#265FE5" stroke-width="0.7" stroke-linecap="round" stroke-dasharray="1 1"/>
<line x1="42.3109" y1="37.8207" x2="42.3109" y2="39.526" stroke="#265FE5" stroke-width="0.7" stroke-linecap="round" stroke-dasharray="1 1"/>
<line x1="40.1728" y1="38.6225" x2="40.1728" y2="40.3278" stroke="#265FE5" stroke-width="0.7" stroke-linecap="round" stroke-dasharray="1 1"/>
<line x1="44.449" y1="38.6225" x2="44.449" y2="40.3278" stroke="#265FE5" stroke-width="0.7" stroke-linecap="round" stroke-dasharray="1 1"/>
<line x1="46.5871" y1="37.8207" x2="46.5871" y2="39.526" stroke="#265FE5" stroke-width="0.7" stroke-linecap="round" stroke-dasharray="1 1"/>
<defs>
<filter id="filter0_d_49_836" x="0" y="0" width="85" height="85" filterUnits="userSpaceOnUse" color-interpolation-filters="sRGB">
<feFlood flood-opacity="0" result="BackgroundImageFix"/>
<feColorMatrix in="SourceAlpha" type="matrix" values="0 0 0 0 0 0 0 0 0 0 0 0 0 0 0 0 0 0 127 0" result="hardAlpha"/>
<feOffset dy="12"/>
<feGaussianBlur stdDeviation="7"/>
<feComposite in2="hardAlpha" operator="out"/>
<feColorMatrix type="matrix" values="0 0 0 0 0.14902 0 0 0 0 0.372549 0 0 0 0 0.898039 0 0 0 0.1 0"/>
<feBlend mode="normal" in2="BackgroundImageFix" result="effect1_dropShadow_49_836"/>
<feBlend mode="normal" in="SourceGraphic" in2="effect1_dropShadow_49_836" result="shape"/>
</filter>
</defs>
</svg>
