<svg width="85" height="85" viewBox="0 0 85 85" fill="none" xmlns="http://www.w3.org/2000/svg">
<g filter="url(#filter0_d_123_523)">
<rect x="14" y="2" width="57" height="57" rx="14" fill="white"/>
</g>
<path d="M52.2585 33.2643L50.1046 28.31C49.8155 27.647 49.0045 27.1297 48.2513 27.1297H36.3322C35.5823 27.1297 34.768 27.647 34.4805 28.31L32.325 33.2643C32.1763 33.6092 32.1912 33.9608 32.363 34.227C32.548 34.51 32.8916 34.669 33.3028 34.669H51.2839C51.6969 34.669 52.0355 34.51 52.2205 34.227C52.3939 33.9608 52.4088 33.6092 52.2585 33.2643ZM35.6269 26.1971H48.9566C49.8948 26.1971 50.9932 26.9271 51.3533 27.791L52.8696 31.4661L54.4817 31.0241C55.0995 30.8533 55.6049 31.2501 55.6049 31.8679V32.6716C55.6049 33.3062 55.0846 33.8202 54.4421 33.8202H53.8458L54.2389 34.7712C54.6007 35.6502 54.8963 37.1336 54.8963 38.0796V44.9191C54.8963 45.5553 54.3744 46.0693 53.7335 46.0693H51.8455C51.2096 46.0693 50.6876 45.5553 50.6876 44.9191V42.9267H33.8958V44.9191C33.8958 45.5553 33.3755 46.0693 32.7379 46.0693H30.85C30.2091 46.0693 29.6871 45.5553 29.6871 44.9191V38.0796C29.6871 37.1336 29.9861 35.6468 30.3495 34.7712L30.741 33.8202H30.1595C29.522 33.8202 29 33.3062 29 32.6716V31.8679C29 31.2501 29.5071 30.8567 30.1215 31.0241L31.7155 31.4594L33.2318 27.791C33.5902 26.9271 34.6887 26.1971 35.6269 26.1971ZM52.6797 39.9113V37.9624C52.6797 37.4919 52.2948 37.1068 51.8207 37.1068H47.7293C47.2553 37.1068 46.8688 37.4919 46.8688 37.9624V39.9113C46.8688 40.3851 47.2553 40.7702 47.7293 40.7702H51.8207C52.2948 40.7702 52.6797 40.3851 52.6797 39.9113ZM37.6767 39.9113V37.9624C37.6767 37.4919 37.2918 37.1068 36.8161 37.1068H32.7264C32.249 37.1068 31.8658 37.4919 31.8658 37.9624V39.9113C31.8658 40.3851 32.249 40.7702 32.7264 40.7702H36.8161C37.2918 40.7702 37.6767 40.3851 37.6767 39.9113Z" fill="#265FE5"/>
<path d="M36.2265 23.9986H34.4327V22.5822H36.2265C37.8419 22.5822 39.1567 21.2629 39.1567 19.6405V16.3571H40.5706V19.6405C40.5706 22.0431 38.6215 23.9986 36.2265 23.9986Z" fill="#265FE5"/>
<path d="M50.1757 23.9986H48.3802C45.9851 23.9986 44.0361 22.0431 44.0361 19.6405V16.3571H45.4483V19.6405C45.4483 21.2629 46.7648 22.5822 48.3802 22.5822H50.1757V23.9986Z" fill="#265FE5"/>
<path d="M43.0103 14H41.5981V23.7545H43.0103V14Z" fill="#265FE5"/>
<defs>
<filter id="filter0_d_123_523" x="0" y="0" width="85" height="85" filterUnits="userSpaceOnUse" color-interpolation-filters="sRGB">
<feFlood flood-opacity="0" result="BackgroundImageFix"/>
<feColorMatrix in="SourceAlpha" type="matrix" values="0 0 0 0 0 0 0 0 0 0 0 0 0 0 0 0 0 0 127 0" result="hardAlpha"/>
<feOffset dy="12"/>
<feGaussianBlur stdDeviation="7"/>
<feComposite in2="hardAlpha" operator="out"/>
<feColorMatrix type="matrix" values="0 0 0 0 0.14902 0 0 0 0 0.372549 0 0 0 0 0.898039 0 0 0 0.1 0"/>
<feBlend mode="normal" in2="BackgroundImageFix" result="effect1_dropShadow_123_523"/>
<feBlend mode="normal" in="SourceGraphic" in2="effect1_dropShadow_123_523" result="shape"/>
</filter>
</defs>
</svg>
