<svg width="194" height="66" viewBox="0 0 194 66" fill="none" xmlns="http://www.w3.org/2000/svg">
<g clip-path="url(#clip0_55_358)">
<path d="M58.945 0.0561523H57.7553V65.9438H58.945V0.0561523Z" fill="#3A475E"/>
<path fill-rule="evenodd" clip-rule="evenodd" d="M45.4904 49.8159C42.5446 59.2003 33.7071 65.9998 23.2834 65.9998C12.8597 65.9998 4.02219 59.2003 1.04803 49.8159H10.3387C12.803 54.3957 17.675 57.4864 23.2834 57.4864C28.8918 57.4864 33.7354 54.3957 36.2281 49.8159H45.4904Z" fill="#3A475E"/>
<path fill-rule="evenodd" clip-rule="evenodd" d="M42.7146 30.2044C42.7995 30.3449 42.9128 30.4854 42.9978 30.6259V30.654C45.2638 34.1942 46.5668 38.4088 46.5668 42.9043C46.5668 43.7753 46.5101 44.6182 46.4252 45.4331H37.7576C37.8993 44.6182 37.9842 43.7753 37.9842 42.9043C37.9842 40.1789 37.2478 37.5097 35.7465 35.2057C35.6899 35.0933 35.6332 35.009 35.5483 34.8967L35.5199 34.8405L30.5064 27.1138C35.18 27.17 39.5421 26.6642 39.5421 26.6642L39.0606 24.585L42.7146 30.2044ZM19.7994 21.0729L15.5506 27.7319H26.0593L30.6197 34.7281L31.6394 36.4701H10.0838C9.09242 38.465 8.58257 40.6566 8.58257 42.9043C8.58257 43.7753 8.66754 44.6182 8.80917 45.4331H0.141627C0.0566506 44.6182 0 43.7753 0 42.9043C0 38.4088 1.30296 34.1942 3.56899 30.654L18.5531 7.08057C21.7538 9.24404 22.8302 16.3526 19.7994 21.0729Z" fill="#0298CF"/>
<path fill-rule="evenodd" clip-rule="evenodd" d="M42.7146 30.2043C42.7995 30.3448 42.9128 30.4853 42.9978 30.6258V30.6539C45.2638 34.1941 46.5668 38.4087 46.5668 42.9042C46.5668 43.7752 46.5101 44.6181 46.4252 45.433H37.7576C37.8993 44.6181 37.9842 43.7752 37.9842 42.9042C37.9842 40.1788 37.2478 37.5096 35.7465 35.2056C35.6899 35.0932 35.6332 35.0089 35.5483 34.8966L35.5199 34.8404L24.643 18.1226C22.2637 14.4419 21.5272 11.2669 21.4989 6.85568C21.4706 2.50064 23.0568 0 23.0568 0L42.7146 30.2043Z" fill="#0298CF"/>
<path d="M87.4402 22.9272L87.2136 22.3933L83.8146 14.498H82.9365L79.5374 22.3933L79.3108 22.9272L77.9512 26.0459H79.4241L80.4155 23.742H86.3072L87.3269 26.0459H88.7998L87.4402 22.9272ZM81.0104 22.3933L83.3614 16.8863L85.7407 22.3933H81.0104Z" fill="#3A475E"/>
<path d="M96.1928 19.8084L95.7679 20.286L92.9637 23.5453V14.498H91.6041V26.0459H92.5954L96.6743 21.3256L100.753 26.0459H102.538L97.5524 20.286L102.538 14.498H100.753L96.1928 19.8084Z" fill="#3A475E"/>
<path d="M114.179 20.286C114.944 19.696 115.454 18.7688 115.454 17.7292C115.454 15.9591 113.981 14.498 112.197 14.498H105.313V26.0459H112.197C113.981 26.0459 115.454 24.613 115.454 22.8429C115.454 21.8033 114.944 20.8761 114.179 20.286ZM112.197 24.6973H106.673V20.9604H112.197C113.245 20.9604 114.094 21.8033 114.094 22.8429C114.094 23.8544 113.245 24.6973 112.197 24.6973ZM112.197 19.6117H106.673V15.8467H112.197C113.245 15.8467 114.094 16.6896 114.094 17.7292C114.094 18.7688 113.245 19.6117 112.197 19.6117Z" fill="#3A475E"/>
<path d="M126.756 22.9272L126.529 22.3933L123.13 14.498H122.224L118.825 22.3933L118.598 22.9272L117.267 26.0459H118.74L119.731 23.742H125.623L126.614 26.0459H128.115L126.756 22.9272ZM120.326 22.3933L122.677 16.8863L125.056 22.3933H120.326Z" fill="#3A475E"/>
<path d="M133.639 15.8467V26.0459H134.998V15.8467H139.389V14.498H129.248V15.8467H133.639Z" fill="#3A475E"/>
<path d="M142.193 14.498V26.0459H152.334V24.6973H143.553V20.9604H149.218V19.6117H143.553V15.8467H152.334V14.498H142.193Z" fill="#3A475E"/>
<path d="M161.001 19.2465L156.922 14.498H155.138L160.123 20.286L155.138 26.0459H156.922L161.001 21.3256L165.08 26.0459H166.864L161.907 20.286L166.864 14.498H165.08L161.001 19.2465Z" fill="#3A475E"/>
<path d="M171 19.6117V14.498H169.64V26.0459H171V20.9604H178.449V26.0459H179.809V14.498H178.449V19.6117H171Z" fill="#3A475E"/>
<path d="M188.165 14.498C184.964 14.498 182.358 17.083 182.358 20.286C182.358 23.461 184.964 26.0459 188.165 26.0459C191.394 26.0459 194 23.461 194 20.286C194 17.083 191.394 14.498 188.165 14.498ZM188.165 24.6973C185.701 24.6973 183.718 22.7305 183.718 20.286C183.718 17.8416 185.701 15.8467 188.165 15.8467C190.629 15.8467 192.64 17.8416 192.64 20.286C192.64 22.7305 190.629 24.6973 188.165 24.6973Z" fill="#3A475E"/>
<path d="M82.1717 47.3154C80.8404 45.9948 80.104 44.2247 80.104 42.3703C80.104 40.4878 80.8404 38.7177 82.1717 37.3971C84.9193 34.6717 89.423 34.6717 92.1705 37.3971L93.7001 35.8799C90.1028 32.3115 84.2394 32.3115 80.6421 35.8799C78.9143 37.6219 77.9512 39.9258 77.9512 42.3703C77.9512 44.8147 78.9143 47.0906 80.6421 48.8326C82.455 50.6027 84.806 51.5018 87.157 51.5018C89.5363 51.5018 91.8873 50.6027 93.7001 48.8326L92.1705 47.3154C89.423 50.0408 84.9193 50.0408 82.1717 47.3154Z" fill="#0298CF"/>
<path d="M97.4107 33.2109V51.5021H113.471V49.3668H99.5634V43.4383H108.543V41.3029H99.5634V35.3463H113.471V33.2109H97.4107Z" fill="#0298CF"/>
<path d="M128.824 33.2109H117.918V51.5021H120.071V43.4383H128.824C131.656 43.4383 133.979 41.1343 133.979 38.3246C133.979 35.5149 131.656 33.2109 128.824 33.2109ZM128.824 41.3029H120.071V35.3463H128.824C130.466 35.3463 131.826 36.6669 131.826 38.3246C131.826 39.9542 130.466 41.3029 128.824 41.3029Z" fill="#0298CF"/>
<path d="M152.05 42.3706C153.297 41.4153 154.061 39.9542 154.061 38.3246C154.061 35.5149 151.767 33.2109 148.934 33.2109H138.001V51.5021H148.934C151.767 51.5021 154.061 49.2263 154.061 46.3885C154.061 44.7588 153.297 43.2978 152.05 42.3706ZM148.934 49.3668H140.154V43.4383H148.934C150.577 43.4383 151.937 44.7588 151.937 46.3885C151.937 48.0462 150.577 49.3668 148.934 49.3668ZM148.934 41.3029H140.154V35.3463H148.934C150.577 35.3463 151.937 36.6669 151.937 38.3246C151.937 39.9542 150.577 41.3029 148.934 41.3029Z" fill="#0298CF"/>
<path d="M160.265 33.2109H158.112V51.5021H159.67L172.02 37.1726V51.5021H174.172V33.2109H172.614L160.265 47.5404V33.2109Z" fill="#0298CF"/>
<path d="M182.443 47.3154C181.112 45.9948 180.376 44.2247 180.376 42.3703C180.376 40.4878 181.112 38.7177 182.443 37.3971C185.191 34.6717 189.666 34.6717 192.442 37.3971L193.943 35.8799C190.374 32.3115 184.511 32.3115 180.914 35.8799C179.186 37.6219 178.223 39.9258 178.223 42.3703C178.223 44.8147 179.186 47.0906 180.914 48.8326C182.727 50.6027 185.078 51.5018 187.429 51.5018C189.808 51.5018 192.159 50.6027 193.943 48.8326L192.442 47.3154C189.666 50.0408 185.191 50.0408 182.443 47.3154Z" fill="#0298CF"/>
</g>
<defs>
<clipPath id="clip0_55_358">
<rect width="194" height="66" fill="white"/>
</clipPath>
</defs>
</svg>
